<?xml version="1.0" encoding="UTF-8"?>
<svg version="1.1" xmlns="http://www.w3.org/2000/svg" width="350" height="350">
<path d="M0 0 C115.5 0 231 0 350 0 C350 115.5 350 231 350 350 C234.5 350 119 350 0 350 C0 234.5 0 119 0 0 Z " fill="#131413" transform="translate(0,0)"/>
<path d="M0 0 C0.33 0 0.66 0 1 0 C1 53.79 1 107.58 1 163 C-19.46 163 -39.92 163 -61 163 C-60.67 162.01 -60.34 161.02 -60 160 C-59.34 160 -58.68 160 -58 160 C-58.33 158.68 -58.66 157.36 -59 156 C-60.010625 156.639375 -61.02125 157.27875 -62.0625 157.9375 C-65.75219924 160.06848956 -68.77860255 160.65539613 -73 161 C-73.33 160.01 -73.66 159.02 -74 158 C-73.05125 157.938125 -72.1025 157.87625 -71.125 157.8125 C-69.578125 157.4103125 -69.578125 157.4103125 -68 157 C-66.76891135 154.50618493 -66.76891135 154.50618493 -66 152 C-66.74765625 152.42152344 -67.4953125 152.84304688 -68.265625 153.27734375 C-69.25046875 153.82519531 -70.2353125 154.37304688 -71.25 154.9375 C-72.22453125 155.48277344 -73.1990625 156.02804687 -74.203125 156.58984375 C-76.53610409 157.76610835 -78.45350762 158.52101691 -81 159 C-80.3125 157.125 -80.3125 157.125 -79 155 C-78.21625 154.690625 -77.4325 154.38125 -76.625 154.0625 C-73.80023036 153.16835367 -73.80023036 153.16835367 -72 150.5 C-69.81018677 147.76273346 -68.30113875 147.00868129 -65 146 C-65 145.01 -65 144.02 -65 143 C-64.05125 142.608125 -63.1025 142.21625 -62.125 141.8125 C-58.65872662 139.80206144 -58.0197307 138.77300358 -57 135 C-56.34 135 -55.68 135 -55 135 C-54.67 134.01 -54.34 133.02 -54 132 C-51.99878825 129.63493157 -51.03200339 129.0106678 -48 128 C-45.4931222 125.18925822 -43.53009089 122.44270451 -42 119 C-41.01 119 -40.02 119 -39 119 C-38.67 119.33 -38.34 119.66 -38 120 C-37.505 118.02 -37.505 118.02 -37 116 C-35.68 115.67 -34.36 115.34 -33 115 C-33.33 114.34 -33.66 113.68 -34 113 C-33.34 113 -32.68 113 -32 113 C-32 112.34 -32 111.68 -32 111 C-31.34 111 -30.68 111 -30 111 C-30 110.01 -30 109.02 -30 108 C-30.61875 108.474375 -31.2375 108.94875 -31.875 109.4375 C-34 111 -34 111 -36 112 C-36.66 111.67 -37.32 111.34 -38 111 C-38 111.66 -38 112.32 -38 113 C-40.5614657 115.29648649 -41.47967572 116 -45 116 C-45.2475 116.61875 -45.495 117.2375 -45.75 117.875 C-47.22221442 120.37776452 -48.31748828 120.9940581 -51 122 C-51.66 122 -52.32 122 -53 122 C-54.18768273 123.18768273 -55.36073562 124.39079692 -56.5 125.625 C-58 127 -58 127 -60 127 C-60 127.66 -60 128.32 -60 129 C-61.4540625 129.433125 -61.4540625 129.433125 -62.9375 129.875 C-66.10664203 130.64214682 -66.10664203 130.64214682 -67 133 C-67.66 133 -68.32 133 -69 133 C-69 133.66 -69 134.32 -69 135 C-71.8125 136.5625 -71.8125 136.5625 -75 138 C-75.99 137.67 -76.98 137.34 -78 137 C-78.33 137.99 -78.66 138.98 -79 140 C-79.66 140 -80.32 140 -81 140 C-81.33 140.99 -81.66 141.98 -82 143 C-83.97416268 144.05008653 -85.97582866 145.04987876 -88 146 C-88.99 146.99 -88.99 146.99 -90 148 C-94.10597317 147.66887313 -98.03795597 147.15559618 -102 146 C-101.505 145.01 -101.505 145.01 -101 144 C-99.68 144 -98.36 144 -97 144 C-96.67 143.34 -96.34 142.68 -96 142 C-95.34 141.67 -94.68 141.34 -94 141 C-93.27306096 139.02111039 -92.60183749 137.02045442 -92 135 C-92.99 135 -93.98 135 -95 135 C-95.33 135.99 -95.66 136.98 -96 138 C-102.15901243 139.23180249 -107.78675502 138.73030908 -114 138 C-114.495 138.99 -114.495 138.99 -115 140 C-114.6875 138.125 -114.6875 138.125 -114 136 C-112.515 135.01 -112.515 135.01 -111 134 C-111 133.67 -111 133.34 -111 133 C-109.02 132.67 -107.04 132.34 -105 132 C-105.66 131.34 -106.32 130.68 -107 130 C-106.34 129.67 -105.68 129.34 -105 129 C-105 128.01 -105 127.02 -105 126 C-103.515 125.01 -103.515 125.01 -102 124 C-102.66 122.68 -103.32 121.36 -104 120 C-102.515 119.505 -102.515 119.505 -101 119 C-100.505 118.01 -100.505 118.01 -100 117 C-99.67 117.33 -99.34 117.66 -99 118 C-95.1638778 118.14475933 -91.67692213 118.17661508 -88 117 C-88 116.34 -88 115.68 -88 115 C-87.34 115 -86.68 115 -86 115 C-85.505 113.515 -85.505 113.515 -85 112 C-81.65747276 111.92572162 -79.1964086 111.93453047 -76 113 C-75.67 112.67 -75.34 112.34 -75 112 C-75.99 111.01 -75.99 111.01 -77 110 C-74.8125 107.9375 -74.8125 107.9375 -72 106 C-69.1875 106.25 -69.1875 106.25 -67 107 C-67.99 107.495 -67.99 107.495 -69 108 C-69 108.66 -69 109.32 -69 110 C-67.02 109.505 -67.02 109.505 -65 109 C-65 108.01 -65 107.02 -65 106 C-65.66 106 -66.32 106 -67 106 C-67 104.68 -67 103.36 -67 102 C-68.65 101.67 -70.3 101.34 -72 101 C-72.495 102.485 -72.495 102.485 -73 104 C-74.65 104 -76.3 104 -78 104 C-78.495 105.485 -78.495 105.485 -79 107 C-81.33333333 107 -83.66666667 107 -86 107 C-86 107.66 -86 108.32 -86 109 C-88.6875 109.8125 -88.6875 109.8125 -92 110 C-94.9375 107.8125 -94.9375 107.8125 -97 105 C-97.08953673 102.04528789 -96.00950823 101.01213119 -94.1875 98.6875 C-92 97 -92 97 -89.75 97.25 C-88.88375 97.62125 -88.88375 97.62125 -88 98 C-88 97.34 -88 96.68 -88 96 C-86.35546875 94.7109375 -86.35546875 94.7109375 -84.1875 93.375 C-83.47980469 92.92898438 -82.77210938 92.48296875 -82.04296875 92.0234375 C-80 91 -80 91 -77 91 C-76.34 89.68 -75.68 88.36 -75 87 C-74.01 87.33 -73.02 87.66 -72 88 C-72 86.68 -72 85.36 -72 84 C-72 82.68 -72 81.36 -72 80 C-71.01 79.67 -70.02 79.34 -69 79 C-68.67 78.67 -68.34 78.34 -68 78 C-67.01 77.67 -66.02 77.34 -65 77 C-64.84402344 76.37609375 -64.68804687 75.7521875 -64.52734375 75.109375 C-63.84890299 72.39561197 -62.8486387 71.78993543 -60.5625 70.25 C-59.94503906 69.82203125 -59.32757813 69.3940625 -58.69140625 68.953125 C-57 68 -57 68 -55 68 C-55.66 66.02 -56.32 64.04 -57 62 C-56.34 62 -55.68 62 -55 62 C-55 61.01 -55 60.02 -55 59 C-54.34 58.67 -53.68 58.34 -53 58 C-53.33 57.34 -53.66 56.68 -54 56 C-52.56429734 55.18432826 -51.12636566 54.37257907 -49.6875 53.5625 C-48.48673828 52.88380859 -48.48673828 52.88380859 -47.26171875 52.19140625 C-45 51 -45 51 -42 50 C-42 50.99 -42 51.98 -42 53 C-40.68 52.34 -39.36 51.68 -38 51 C-39.485 50.505 -39.485 50.505 -41 50 C-40.34 48.35 -39.68 46.7 -39 45 C-37.515 45.495 -37.515 45.495 -36 46 C-36 45.34 -36 44.68 -36 44 C-35.195625 43.7525 -34.39125 43.505 -33.5625 43.25 C-30.84688769 42.28885283 -30.84688769 42.28885283 -30.25 40 C-30.1675 39.34 -30.085 38.68 -30 38 C-29.505 37.01 -29.505 37.01 -29 36 C-28.01 36 -27.02 36 -26 36 C-25.67 35.01 -25.34 34.02 -25 33 C-23.35 32.67 -21.7 32.34 -20 32 C-20.33 30.35 -20.66 28.7 -21 27 C-20.38125 26.608125 -19.7625 26.21625 -19.125 25.8125 C-16.67503632 23.72282509 -15.98120002 22.02536673 -15 19 C-13.02 19.495 -13.02 19.495 -11 20 C-11 19.01 -11 18.02 -11 17 C-10.34 17 -9.68 17 -9 17 C-9 16.01 -9 15.02 -9 14 C-8.34 14 -7.68 14 -7 14 C-6.67 12.68 -6.34 11.36 -6 10 C-5.34 10 -4.68 10 -4 10 C-3.814375 9.0409375 -3.814375 9.0409375 -3.625 8.0625 C-3.41875 7.381875 -3.2125 6.70125 -3 6 C-2.34 5.67 -1.68 5.34 -1 5 C-0.34444881 2.47266765 -0.34444881 2.47266765 0 0 Z " fill="#BEFB70" transform="translate(349,187)"/>
<path d="M0 0 C0.68118896 0.28069336 1.36237793 0.56138672 2.06420898 0.85058594 C4.91837082 2.11323634 6.77702502 2.99884332 8.50390625 5.65234375 C8.68824219 6.24144531 8.87257812 6.83054687 9.0625 7.4375 C4.35526898 7.10908853 0.61561583 5.92650729 -3.75 4.125 C-24.6123012 -4.0768647 -46.16660433 -5.81371303 -67.0703125 3.16796875 C-76.83057699 7.61539669 -85.89544411 13.30073256 -91.9375 22.4375 C-92.65795367 25.58868325 -92.65795367 25.58868325 -92.9375 28.4375 C-93.9275 27.9425 -93.9275 27.9425 -94.9375 27.4375 C-95.9275 30.0775 -96.9175 32.7175 -97.9375 35.4375 C-95.6275 35.4375 -93.3175 35.4375 -90.9375 35.4375 C-90.9375 36.4275 -90.9375 37.4175 -90.9375 38.4375 C-93.2475 38.4375 -95.5575 38.4375 -97.9375 38.4375 C-95.56120911 42.58420039 -95.56120911 42.58420039 -91.9375 45.4375 C-90.4850661 45.53698919 -89.02820809 45.57523946 -87.5723877 45.58226013 C-86.65538589 45.58915863 -85.73838409 45.59605713 -84.79359436 45.60316467 C-83.7846965 45.60577805 -82.77579865 45.60839142 -81.73632812 45.61108398 C-80.14600014 45.6211145 -80.14600014 45.6211145 -78.52354431 45.63134766 C-76.21597962 45.64542103 -73.90840081 45.65730775 -71.60081482 45.66729546 C-67.95391708 45.68366031 -64.30712434 45.70689489 -60.66027832 45.73219299 C-50.28968502 45.80310362 -39.91904926 45.86319486 -29.54833984 45.91430664 C-23.2112258 45.94602111 -16.87423269 45.98727527 -10.53721619 46.03450203 C-8.11622788 46.05056546 -5.6952117 46.06286681 -3.27418518 46.07140923 C0.10444488 46.08350414 3.48278824 46.10762834 6.86132812 46.13452148 C7.87022598 46.13511063 8.87912384 46.13569977 9.91859436 46.13630676 C10.83559616 46.14602509 11.75259796 46.15574341 12.6973877 46.16575623 C13.49674995 46.16998816 14.29611221 46.1742201 15.11969757 46.17858028 C17.0625 46.4375 17.0625 46.4375 19.0625 48.4375 C19.0625 49.0975 19.0625 49.7575 19.0625 50.4375 C24.59288493 45.94580072 24.59288493 45.94580072 29.0625 40.4375 C28.57844564 44.74930732 27.44245134 46.4964554 24.125 49.25 C23.05958984 50.15685547 23.05958984 50.15685547 21.97265625 51.08203125 C20.0625 52.4375 20.0625 52.4375 18.0625 52.4375 C18.0625 64.6475 18.0625 76.8575 18.0625 89.4375 C-30.7775 89.4375 -79.6175 89.4375 -129.9375 89.4375 C-129.9375 75.2475 -129.9375 61.0575 -129.9375 46.4375 C-118.7175 46.1075 -107.4975 45.7775 -95.9375 45.4375 C-96.9275 44.1175 -97.9175 42.7975 -98.9375 41.4375 C-98.9375 40.4475 -98.9375 39.4575 -98.9375 38.4375 C-100.5875 38.4375 -102.2375 38.4375 -103.9375 38.4375 C-103.9375 32.1675 -103.9375 25.8975 -103.9375 19.4375 C-102.6175 19.4375 -101.2975 19.4375 -99.9375 19.4375 C-99.6075 22.7375 -99.2775 26.0375 -98.9375 29.4375 C-97.08046182 25.72342364 -96.69695231 24.95567653 -96.91796875 21.171875 C-96.94697266 20.36363281 -96.97597656 19.55539063 -97.00585938 18.72265625 C-97.08458176 17.04754705 -97.17550903 15.3729619 -97.27929688 13.69921875 C-97.47631208 7.32400876 -96.0252021 3.35322941 -91.9375 -1.5625 C-69.47648043 -22.42501635 -24.84268505 -10.41943452 0 0 Z " fill="#BDF96F" transform="translate(230.9375,82.5625)"/>
<path d="M0 0 C20.46 0 40.92 0 62 0 C61.67 1.32 61.34 2.64 61 4 C61.845625 3.484375 62.69125 2.96875 63.5625 2.4375 C67.58736786 0.75437344 69.80214298 1.07647145 74 2 C74 2.66 74 3.32 74 4 C73.01 4 72.02 4 71 4 C70.67 4.99 70.34 5.98 70 7 C66.7 7.66 63.4 8.32 60 9 C60.495 10.485 60.495 10.485 61 12 C61.68707031 11.69964844 62.37414063 11.39929687 63.08203125 11.08984375 C63.98308594 10.70957031 64.88414063 10.32929688 65.8125 9.9375 C66.70582031 9.55464844 67.59914063 9.17179688 68.51953125 8.77734375 C71 8 71 8 74 9 C72.9873885 11.73063776 72.40712346 12.79572899 69.7578125 14.125 C68.88898438 14.41375 68.02015625 14.7025 67.125 15 C62.42679175 16.7219984 59.30548745 18.38902509 57 23 C56.401875 23.144375 55.80375 23.28875 55.1875 23.4375 C52.88697572 23.87358856 52.88697572 23.87358856 51 25.5625 C49 27 49 27 45 27 C44.79375 27.598125 44.5875 28.19625 44.375 28.8125 C42.48120878 31.82534967 40.20927027 32.59594426 37 34 C36.01 34.495 36.01 34.495 35 35 C34.67 34.67 34.34 34.34 34 34 C33.67 34.99 33.34 35.98 33 37 C30.9375 38.1875 30.9375 38.1875 29 39 C29.33 39.66 29.66 40.32 30 41 C31.62818946 40.77169299 33.2526349 40.51656424 34.875 40.25 C35.77992187 40.11078125 36.68484375 39.9715625 37.6171875 39.828125 C40.16214243 39.22016157 40.16214243 39.22016157 41.3203125 36.921875 C41.54460938 36.28765625 41.76890625 35.6534375 42 35 C43.32 35.33 44.64 35.66 46 36 C46 35.34 46 34.68 46 34 C46.66 34 47.32 34 48 34 C48 34.66 48 35.32 48 36 C48.99 36 49.98 36 51 36 C51.495 35.01 51.495 35.01 52 34 C52.33 34.33 52.66 34.66 53 35 C53.2784375 34.0409375 53.2784375 34.0409375 53.5625 33.0625 C54.036875 32.381875 54.51125 31.70125 55 31 C57.3306218 30.64820803 59.66435067 30.31669821 62 30 C64.63624434 28.10770734 64.63624434 28.10770734 67 26 C70.75885425 24.02660152 72.91931839 23.83409097 77 25 C77.33 24.34 77.66 23.68 78 23 C79.98 23.495 79.98 23.495 82 24 C82 23.01 82 22.02 82 21 C82.969375 20.71125 83.93875 20.4225 84.9375 20.125 C88.10664203 19.35785318 88.10664203 19.35785318 89 17 C90.65 17.33 92.3 17.66 94 18 C94 18.66 94 19.32 94 20 C96.49064888 20.68707555 98.37886292 21 101 21 C101 21.66 101 22.32 101 23 C98.1875 24.5625 98.1875 24.5625 95 26 C93.515 25.505 93.515 25.505 92 25 C91.67 26.32 91.34 27.64 91 29 C92.65 29 94.3 29 96 29 C96.33 28.34 96.66 27.68 97 27 C97 27.66 97 28.32 97 29 C97.66 28.773125 98.32 28.54625 99 28.3125 C103.14192088 27.88104991 106.31242919 29.15214443 110 31 C110.99 31.99 110.99 31.99 112 33 C111.505 33.99 111.505 33.99 111 35 C110.34 35 109.68 35 109 35 C109 34.34 109 33.68 109 33 C108.34 33 107.68 33 107 33 C107.495 34.98 107.495 34.98 108 37 C105.36 36.34 102.72 35.68 100 35 C100 35.66 100 36.32 100 37 C101.485 37.495 101.485 37.495 103 38 C102.01 38.495 102.01 38.495 101 39 C100.34 39.99 99.68 40.98 99 42 C95.72724974 42 93.153368 41.70074844 90 41 C90 41.66 90 42.32 90 43 C92.49064888 43.68707555 94.37886292 44 97 44 C97.495 45.98 97.495 45.98 98 48 C97.34 47.67 96.68 47.34 96 47 C94.00115143 46.92901816 91.99999149 46.91586548 90 46.9375 C88.9275 46.94652344 87.855 46.95554688 86.75 46.96484375 C85.8425 46.97644531 84.935 46.98804688 84 47 C83.34 47 82.68 47 82 47 C82 47.66 82 48.32 82 49 C81.01 49 80.02 49 79 49 C78.505 49.99 78.505 49.99 78 51 C74.28400809 51.20086443 73.22791555 51.1519437 70 49 C70 49.99 70 50.98 70 52 C66.21812119 53.83691257 64.05431692 54.15837626 60 53 C61.32 52.34 62.64 51.68 64 51 C63.34 49.68 62.68 48.36 62 47 C62 47.99 62 48.98 62 50 C61.0409375 50.433125 61.0409375 50.433125 60.0625 50.875 C57.84793921 51.82823451 57.84793921 51.82823451 57 54 C57.99 54.33 58.98 54.66 60 55 C60 55.99 60 56.98 60 58 C61.32 58 62.64 58 64 58 C64.495 57.01 64.495 57.01 65 56 C71.21981655 53.92672782 75.57733901 54.03054174 82 55 C82 56.32 82 57.64 82 59 C82.66 59 83.32 59 84 59 C83.67 57.35 83.34 55.7 83 54 C85.70726366 53.4935186 88.41557124 52.994649 91.125 52.5 C91.88554688 52.35691406 92.64609375 52.21382812 93.4296875 52.06640625 C97.68042914 51.29687544 101.65859197 50.83355624 106 51 C104.98059612 53.7801924 104.30279713 54.82814217 101.6875 56.3125 C98.7076274 57.07479299 96.9290363 56.83686751 94 56 C93.5359375 56.928125 93.5359375 56.928125 93.0625 57.875 C92.375 59.25 91.6875 60.625 91 62 C90.34 61.67 89.68 61.34 89 61 C89 62.32 89 63.64 89 65 C83.04296875 66.7578125 83.04296875 66.7578125 81 67 C79.515 66.01 79.515 66.01 78 65 C78 65.66 78 66.32 78 67 C75.04518508 69.74375671 74.22528092 70 70 70 C69.67 70.66 69.34 71.32 69 72 C67.67511887 72.36548445 66.33981486 72.6937566 65 73 C63.6520257 73.63654342 62.31403276 74.29605388 61 75 C61 75.99 61 76.98 61 78 C60.01 78 59.02 78 58 78 C58.99 78.495 58.99 78.495 60 79 C60 79.99 60 80.98 60 82 C57 81 57 81 55 79 C55 79.99 55 80.98 55 82 C51.535 82.495 51.535 82.495 48 83 C47.505 84.485 47.505 84.485 47 86 C46.01 86 45.02 86 44 86 C44 86.66 44 87.32 44 88 C43.01 88.33 42.02 88.66 41 89 C39.96514123 91.31808364 38.9644586 93.65175298 38 96 C37.01 96.495 37.01 96.495 36 97 C35.73316406 97.65355469 35.46632812 98.30710937 35.19140625 98.98046875 C34 101 34 101 31.65234375 101.86328125 C30.30849609 102.08564453 30.30849609 102.08564453 28.9375 102.3125 C27.58978516 102.55419922 27.58978516 102.55419922 26.21484375 102.80078125 C25.48394531 102.86652344 24.75304687 102.93226562 24 103 C23.505 102.505 23.505 102.505 23 102 C22.01 102.495 22.01 102.495 21 103 C21 103.99 21 104.98 21 106 C19.68 106 18.36 106 17 106 C17 106.66 17 107.32 17 108 C15.700625 108.5878125 15.700625 108.5878125 14.375 109.1875 C11.74546333 110.59965858 10.08990472 111.69622175 7.9375 113.625 C5 116 5 116 0 117 C0 78.39 0 39.78 0 0 Z " fill="#BCF96F" transform="translate(0,0)"/>
<path d="M0 0 C2.95746099 1.11111314 5.65745729 1.71821582 8.796875 2.05078125 C9.456875 1.72078125 10.116875 1.39078125 10.796875 1.05078125 C18.88796239 6.92186507 27.97106448 13.98062012 30.796875 24.05078125 C31.09931748 28.0767369 31.0385332 32.02314463 30.796875 36.05078125 C30.136875 36.05078125 29.476875 36.05078125 28.796875 36.05078125 C28.5184375 37.10265625 28.5184375 37.10265625 28.234375 38.17578125 C26.24867474 42.14718176 23.25754224 44.35812305 19.796875 47.05078125 C18.806875 45.07078125 18.806875 45.07078125 17.796875 43.05078125 C17.23972714 43.05023648 16.68257929 43.04969172 16.10854816 43.04913044 C2.54567055 43.03415666 -11.01687443 42.99136981 -24.57956982 42.91869068 C-31.13846101 42.88438365 -37.69711834 42.85930485 -44.25610352 42.85522461 C-50.58459985 42.85094976 -56.91256831 42.82255351 -63.24090004 42.77734947 C-65.65660847 42.76434862 -68.07238 42.76007588 -70.48811913 42.76462746 C-73.86920723 42.76951473 -77.24874141 42.74352151 -80.62963867 42.71020508 C-81.63089279 42.71883072 -82.63214691 42.72745636 -83.66374207 42.73634338 C-88.32278027 42.65926147 -90.49959522 42.58523077 -94.3014679 39.69706726 C-96.203125 37.05078125 -96.203125 37.05078125 -97.203125 34.05078125 C-94.893125 34.05078125 -92.583125 34.05078125 -90.203125 34.05078125 C-90.203125 33.06078125 -90.203125 32.07078125 -90.203125 31.05078125 C-92.513125 31.05078125 -94.823125 31.05078125 -97.203125 31.05078125 C-96.73598817 26.84654978 -96.29006737 24.89076823 -93.203125 22.05078125 C-92.91308594 21.28636719 -92.62304688 20.52195312 -92.32421875 19.734375 C-87.47367512 8.12349182 -74.47578395 1.10328352 -63.53515625 -3.66015625 C-42.62880651 -11.74819308 -20.20542242 -8.63274 0 0 Z " fill="#1F201E" transform="translate(230.203125,86.94921875)"/>
<path d="M0 0 C3.9711193 2.57042431 6.97151717 6.12662808 9.08203125 10.34765625 C9.36402229 14.5204097 9.39580234 18.69498253 9.43212891 22.87646484 C9.44860489 24.26335529 9.47578412 25.65016379 9.51416016 27.03662109 C9.74204145 35.32159214 9.91049696 42.00573558 4.08203125 48.34765625 C-0.49488555 52.69572721 -4.46344626 54.43975638 -10.73046875 54.66015625 C-16.72895133 54.49105956 -21.47630052 53.66156277 -25.93359375 49.4375 C-32.17006567 42.45315848 -32.16271438 37.4006252 -32.21313477 28.28173828 C-32.23029567 26.11946443 -32.27417417 23.95874118 -32.31835938 21.796875 C-32.32849151 20.41277163 -32.33700598 19.02865528 -32.34375 17.64453125 C-32.35833252 16.38995117 -32.37291504 15.13537109 -32.38793945 13.84277344 C-31.65041163 8.3578652 -28.95782441 5.3423008 -25.04296875 1.59765625 C-17.17710295 -4.06576713 -8.57548212 -4.19012174 0 0 Z " fill="#FAFAFA" transform="translate(186.91796875,185.65234375)"/>
<path d="M0 0 C3.96 0 7.92 0 12 0 C12 7.59 12 15.18 12 23 C17.94 23 23.88 23 30 23 C30 15.41 30 7.82 30 0 C33.63 0 37.26 0 41 0 C41 18.15 41 36.3 41 55 C37.37 55 33.74 55 30 55 C30 47.41 30 39.82 30 32 C24.06 32 18.12 32 12 32 C12 39.59 12 47.18 12 55 C8.04 55 4.08 55 0 55 C0 36.85 0 18.7 0 0 Z " fill="#F6F6F6" transform="translate(106,184)"/>
<path d="M0 0 C3.96 0 7.92 0 12 0 C13.32002556 2.55886504 14.63113782 5.12167068 15.9375 7.6875 C16.31068359 8.40873047 16.68386719 9.12996094 17.06835938 9.87304688 C18.93965239 13.56505742 20.48269556 16.83693096 21 21 C21.66 21 22.32 21 23 21 C23.37125 19.7625 23.7425 18.525 24.125 17.25 C26.12333111 11.19708401 29.05301842 5.63645991 32 0 C35.96 0 39.92 0 44 0 C42.72943595 4.15501558 41.15976107 7.73744496 38.99609375 11.5 C30.87195602 26.20368913 27.41083333 37.25784713 28 54 C27 55 27 55 24.71484375 55.09765625 C23.34005859 55.08025391 23.34005859 55.08025391 21.9375 55.0625 C21.01839844 55.05347656 20.09929687 55.04445312 19.15234375 55.03515625 C18.44207031 55.02355469 17.73179687 55.01195312 17 55 C17.01160156 54.41734375 17.02320313 53.8346875 17.03515625 53.234375 C17.17996921 40.07708283 16.00880522 30.21579457 9.14794922 18.91748047 C7.52918295 16.21356931 6.05508545 13.43938451 4.57836914 10.65600586 C3.87448042 9.33029831 3.16178984 8.0092162 2.43920898 6.69360352 C0 2.22079992 0 2.22079992 0 0 Z " fill="#F9F9F9" transform="translate(202,184)"/>
<path d="M0 0 C-3.05950083 0.97268353 -4.88269875 0.96745817 -7.94921875 0.08203125 C-13.89272733 -1.36040275 -19.72280768 -1.33017177 -25.8125 -1.3125 C-26.91142578 -1.32861328 -28.01035156 -1.34472656 -29.14257812 -1.36132812 C-47.79799009 -1.3723213 -64.8925686 5.69851968 -78.125 18.875 C-79.09024628 19.91026414 -80.04922448 20.95143043 -81 22 C-81.9953597 23.00461886 -82.99406544 24.00596999 -84 25 C-85.97784396 19.06646813 -86.00831235 12.36146881 -83.375 6.625 C-78.86123977 -1.02808828 -72.25139961 -3.63583494 -64 -6 C-43.46451814 -10.54671226 -19.70697802 -6.35562094 0 0 Z " fill="#1E1F1B" transform="translate(220,80)"/>
<path d="M0 0 C2.8100346 1.79363911 4.50940468 3.01880935 6 6 C6.32399495 10.07659468 6.32453245 14.16212883 6.375 18.25 C6.41238281 19.38308594 6.44976562 20.51617187 6.48828125 21.68359375 C6.58727515 31.06601514 6.58727515 31.06601514 3.76171875 34.7578125 C0.1755173 37.66938199 -1.48322427 37.76338774 -5.91015625 37.46875 C-8.90957133 36.795984 -10.25192088 35.47644542 -12 33 C-14.16580027 28.66839947 -13.31881606 22.94525856 -13.375 18.1875 C-13.41238281 16.99833984 -13.44976562 15.80917969 -13.48828125 14.58398438 C-13.57671104 5.83434827 -13.57671104 5.83434827 -10.7265625 1.7109375 C-6.91800754 -0.67895802 -4.35213971 -0.97593436 0 0 Z " fill="#242424" transform="translate(179,193)"/>
<path d="M0 0 C0.33 0 0.66 0 1 0 C1 8.58 1 17.16 1 26 C-9.56 26 -20.12 26 -31 26 C-28.43810855 23.43810855 -26.39848267 21.43408764 -23.5625 19.375 C-11.19635361 10.36987152 -11.19635361 10.36987152 0 0 Z " fill="#BAF66E" transform="translate(349,324)"/>
<path d="M0 0 C0.33 0.66 0.66 1.32 1 2 C1.99 2.33 2.98 2.66 4 3 C5.90234375 5.36328125 5.90234375 5.36328125 7.9375 8.3125 C9.26444096 10.22748801 10.61787651 12.12445047 12 14 C12.50706482 14.70570129 13.01412964 15.41140259 13.53656006 16.13848877 C17.3027824 18.98445431 20.84693447 18.57157062 25.45019531 18.54589844 C26.88484634 18.56140495 26.88484634 18.56140495 28.34848022 18.57722473 C31.50853245 18.60671281 34.66794584 18.6081532 37.828125 18.609375 C40.01960476 18.62435255 42.21107321 18.6410788 44.40252686 18.65948486 C50.16960155 18.70321804 55.93652397 18.72317081 61.70373535 18.73822021 C67.58904039 18.75776969 73.47418046 18.79974215 79.359375 18.83984375 C90.90619919 18.91521061 102.45298657 18.96546295 114 19 C114 19.33 114 19.66 114 20 C99.61385197 20.11684665 85.22777761 20.20466195 70.84125233 20.25906086 C64.16115151 20.28516814 57.48143106 20.3205878 50.80151367 20.37719727 C44.35650687 20.43147493 37.91180667 20.46141207 31.46658897 20.47438622 C29.00614278 20.48363356 26.54571359 20.50169128 24.08539772 20.52865028 C20.64225466 20.56488236 17.20038272 20.56994754 13.75708008 20.56762695 C12.73712448 20.58560333 11.71716888 20.60357971 10.66630554 20.62210083 C5.95862336 20.58770894 3.73867302 20.55771344 -0.1098175 17.65202332 C-2 15 -2 15 -3 12 C-0.69 12 1.62 12 4 12 C4 11.01 4 10.02 4 9 C1.69 9 -0.62 9 -3 9 C-2.5020163 5.26512223 -2.12508244 3.18762365 0 0 Z " fill="#333A29" transform="translate(136,109)"/>
<path d="M0 0 C0.66 0.33 1.32 0.66 2 1 C1.814375 1.598125 1.62875 2.19625 1.4375 2.8125 C0.77906313 5.16408762 0.77906313 5.16408762 2 8 C4.97 8.33 7.94 8.66 11 9 C11 8.34 11 7.68 11 7 C11.99 7 12.98 7 14 7 C14.33 6.34 14.66 5.68 15 5 C15.99 5.33 16.98 5.66 18 6 C18.33 5.34 18.66 4.68 19 4 C20.66666667 3.66666667 22.33333333 3.33333333 24 3 C24.33 2.34 24.66 1.68 25 1 C26.65 1 28.3 1 30 1 C30.495 1.99 30.495 1.99 31 3 C30.67 3.99 30.34 4.98 30 6 C30.66 6 31.32 6 32 6 C32 6.99 32 7.98 32 9 C30.68 9.33 29.36 9.66 28 10 C28 9.34 28 8.68 28 8 C25.525 7.505 25.525 7.505 23 7 C21.66666667 10 21.66666667 10 23 13 C19.21467127 13.77427179 16.69036126 13.99461409 13 13 C7.49721444 12.18275462 2.47625247 11.70299284 -3 13 C-3 13.66 -3 14.32 -3 15 C-6.82320557 16.42258812 -9.91281305 17.24042276 -14 17 C-14 16.01 -14 15.02 -14 14 C-12.35 13.67 -10.7 13.34 -9 13 C-9 11.68 -9 10.36 -9 9 C-7.68 8.67 -6.36 8.34 -5 8 C-5 7.34 -5 6.68 -5 6 C-3.68 5.67 -2.36 5.34 -1 5 C-0.67 3.35 -0.34 1.7 0 0 Z " fill="#789C4B" transform="translate(252,287)"/>
<path d="M0 0 C8.70945044 2.27389593 15.33045527 10.76598878 19.94140625 18.0546875 C22.01411065 21.86356865 22.10832055 24.92618914 22.0625 29.1875 C22.05347656 30.27417969 22.04445313 31.36085938 22.03515625 32.48046875 C22.02355469 33.31191406 22.01195312 34.14335938 22 35 C21.34 35 20.68 35 20 35 C19.814375 35.70125 19.62875 36.4025 19.4375 37.125 C17.45179974 41.09640051 14.46066724 43.3073418 11 46 C10.34 44.68 9.68 43.36 9 42 C9.99 41.505 9.99 41.505 11 41 C11.87640654 38.75768225 11.87640654 38.75768225 12.5625 36.125 C12.81128906 35.24070313 13.06007812 34.35640625 13.31640625 33.4453125 C13.54199219 32.63835937 13.76757812 31.83140625 14 31 C14.33 30.01 14.66 29.02 15 28 C15.43661709 22.43313216 14.84230753 17.81297408 12 13 C7.70940009 8.24555145 2.6416626 4.93836594 -3 2 C-2.01 1.34 -1.02 0.68 0 0 Z " fill="#9CCD5E" transform="translate(239,88)"/>
<path d="M0 0 C1.5675 -0.061875 3.135 -0.12375 4.75 -0.1875 C6.07257813 -0.23970703 6.07257813 -0.23970703 7.421875 -0.29296875 C10.44671583 0.05076316 11.75583602 1.00227459 14 3 C13.814375 4.134375 13.62875 5.26875 13.4375 6.4375 C13.2209375 8.2009375 13.2209375 8.2009375 13 10 C13.33 10.33 13.66 10.66 14 11 C13.6875 14.5 13.6875 14.5 13 18 C9.14854957 19.92572521 4.19956748 19.04883218 0 19 C0 12.73 0 6.46 0 0 Z " fill="#EFEFEF" transform="translate(201,102)"/>
<path d="M0 0 C0.68118896 0.28069336 1.36237793 0.56138672 2.06420898 0.85058594 C4.91837082 2.11323634 6.77702502 2.99884332 8.50390625 5.65234375 C8.68824219 6.24144531 8.87257813 6.83054687 9.0625 7.4375 C4.35526898 7.10908853 0.61561583 5.92650729 -3.75 4.125 C-11.90864307 0.84629297 -20.33860502 -0.83500034 -28.9375 -2.5625 C-28.6075 -3.2225 -28.2775 -3.8825 -27.9375 -4.5625 C-27.31101563 -4.4903125 -26.68453125 -4.418125 -26.0390625 -4.34375 C-25.22179687 -4.2509375 -24.40453125 -4.158125 -23.5625 -4.0625 C-22.75039062 -3.9696875 -21.93828125 -3.876875 -21.1015625 -3.78125 C-18.96837175 -3.52897649 -18.96837175 -3.52897649 -16.9375 -3.5625 C-20.10317207 -4.21327173 -23.27020077 -4.8571984 -26.4375 -5.5 C-27.324375 -5.68240234 -28.21125 -5.86480469 -29.125 -6.05273438 C-49.1289555 -10.09765185 -68.5414195 -10.10370017 -87.9375 -3.5625 C-85.51269296 -6.39144155 -83.17431526 -7.45055716 -79.6875 -8.6875 C-78.77484375 -9.02007812 -77.8621875 -9.35265625 -76.921875 -9.6953125 C-52.54078431 -16.77987027 -22.75215849 -9.54263298 0 0 Z " fill="#8DB856" transform="translate(230.9375,82.5625)"/>
<path d="M0 0 C2.4375 1.3125 2.4375 1.3125 4 4 C4.72286969 8.91104253 4.97379983 13.3250643 2.4375 17.6875 C-0.9236444 19.49734698 -3.24120497 19.4783921 -7 19 C-8.69140625 17.87890625 -8.69140625 17.87890625 -10 16 C-10.3984375 12.96875 -10.3984375 12.96875 -10.375 9.5 C-10.38660156 7.78296875 -10.38660156 7.78296875 -10.3984375 6.03125 C-10 3 -10 3 -8.69140625 1.12109375 C-5.79122473 -0.80119747 -3.35735631 -0.41230692 0 0 Z " fill="#EFEFEF" transform="translate(235,102)"/>
<path d="M0 0 C2.375 1.3125 2.375 1.3125 4 4 C4.72979436 8.90749475 4.97175584 13.32857995 2.4375 17.6875 C-0.9236444 19.49734698 -3.24120497 19.4783921 -7 19 C-8.6875 17.87890625 -8.6875 17.87890625 -10 16 C-10.43359375 12.96875 -10.43359375 12.96875 -10.4375 9.5 C-10.45683594 8.3553125 -10.47617188 7.210625 -10.49609375 6.03125 C-10 3 -10 3 -8.16015625 1.12109375 C-5.19636515 -0.41707632 -3.29430673 -0.48041973 0 0 Z " fill="#12170D" transform="translate(140,142)"/>
<path d="M0 0 C0.85271484 0.10828125 0.85271484 0.10828125 1.72265625 0.21875 C6.52364968 0.79583101 11.16565627 1.10285838 16 1 C15.34 2.32 14.68 3.64 14 5 C13.505 4.01 13.505 4.01 13 3 C12.01 2.67 11.02 2.34 10 2 C10.99 3.98 11.98 5.96 13 8 C9.7 8.33 6.4 8.66 3 9 C3.33 10.65 3.66 12.3 4 14 C3.01 14.33 2.02 14.66 1 15 C1.33 13.35 1.66 11.7 2 10 C1.195625 10.165 0.39125 10.33 -0.4375 10.5 C-3.56786704 11.11080332 -3.56786704 11.11080332 -6.4375 10.375 C-7.283125 10.25125 -8.12875 10.1275 -9 10 C-9.66 10.66 -10.32 11.32 -11 12 C-12.32 12 -13.64 12 -15 12 C-16.93212692 12.62284938 -16.93212692 12.62284938 -18.75 13.5 C-19.8225 13.995 -20.895 14.49 -22 15 C-21.67 13.35 -21.34 11.7 -21 10 C-21.66 9.67 -22.32 9.34 -23 9 C-22.34 7.68 -21.68 6.36 -21 5 C-20.01 5 -19.02 5 -18 5 C-18 4.01 -18 3.02 -18 2 C-17.34 2.33 -16.68 2.66 -16 3 C-16 3.99 -16 4.98 -16 6 C-16.66 6.66 -17.32 7.32 -18 8 C-16.35 8 -14.7 8 -13 8 C-12.67 7.34 -12.34 6.68 -12 6 C-11.34 6.33 -10.68 6.66 -10 7 C-10 6.01 -10 5.02 -10 4 C-8.14375 4.2784375 -8.14375 4.2784375 -6.25 4.5625 C-3.23720423 4.94711223 -0.89989173 5.0874594 2 4 C1.34 2.68 0.68 1.36 0 0 Z " fill="#2A3220" transform="translate(80,45)"/>
<path d="M0 0 C1.32 0 2.64 0 4 0 C5.625 2.4375 5.625 2.4375 7 5 C7.66 5.33 8.32 5.66 9 6 C9.226875 5.195625 9.45375 4.39125 9.6875 3.5625 C10.120625 2.716875 10.55375 1.87125 11 1 C12.65 0.67 14.3 0.34 16 0 C16 6.27 16 12.54 16 19 C14.68 19 13.36 19 12 19 C11.67 15.7 11.34 12.4 11 9 C10.01 10.485 10.01 10.485 9 12 C8.01 11.67 7.02 11.34 6 11 C5.67 10.34 5.34 9.68 5 9 C4.67 12.3 4.34 15.6 4 19 C2.68 19 1.36 19 0 19 C0 12.73 0 6.46 0 0 Z " fill="#13170D" transform="translate(147,142)"/>
<path d="M0 0 C2.475 0.495 2.475 0.495 5 1 C6.3125 3.5625 6.3125 3.5625 7 6 C9.87420123 3.28395285 9.87420123 3.28395285 12 0 C13.32 0 14.64 0 16 0 C16 6.27 16 12.54 16 19 C14.68 19 13.36 19 12 19 C11.67 15.7 11.34 12.4 11 9 C10.01 10.485 10.01 10.485 9 12 C8.01 11.67 7.02 11.34 6 11 C5.67 10.34 5.34 9.68 5 9 C4.67 12.3 4.34 15.6 4 19 C2.68 19 1.36 19 0 19 C0 12.73 0 6.46 0 0 Z " fill="#F0F0F0" transform="translate(182,102)"/>
<path d="M0 0 C2.475 0.99 2.475 0.99 5 2 C4.01 2.33 3.02 2.66 2 3 C2 3.66 2 4.32 2 5 C3.32 5.33 4.64 5.66 6 6 C6 6.66 6 7.32 6 8 C4.68 8.33 3.36 8.66 2 9 C3.32 9.66 4.64 10.32 6 11 C5.67 12.32 5.34 13.64 5 15 C5.66 15.33 6.32 15.66 7 16 C6.01 18.475 6.01 18.475 5 21 C-1.15901243 22.23180249 -6.78675502 21.73030908 -13 21 C-13.33 21.66 -13.66 22.32 -14 23 C-13.6875 21.125 -13.6875 21.125 -13 19 C-12.01 18.34 -11.02 17.68 -10 17 C-10 16.67 -10 16.34 -10 16 C-8.02 15.67 -6.04 15.34 -4 15 C-4.66 14.34 -5.32 13.68 -6 13 C-5.34 12.67 -4.68 12.34 -4 12 C-4 11.01 -4 10.02 -4 9 C-3.01 8.34 -2.02 7.68 -1 7 C-1.66 5.68 -2.32 4.36 -3 3 C-2.01 2.67 -1.02 2.34 0 2 C0 1.34 0 0.68 0 0 Z " fill="#A8DE64" transform="translate(248,304)"/>
<path d="M0 0 C1.32 0 2.64 0 4 0 C5.65 2.97 7.3 5.94 9 9 C9.33 6.03 9.66 3.06 10 0 C11.32 0 12.64 0 14 0 C14 6.27 14 12.54 14 19 C12.68 19 11.36 19 10 19 C8.35 16.03 6.7 13.06 5 10 C4.67 12.97 4.34 15.94 4 19 C2.68 19 1.36 19 0 19 C0 12.73 0 6.46 0 0 Z " fill="#151A0E" transform="translate(189,142)"/>
<path d="M0 0 C1.65 0 3.3 0 5 0 C7.70071112 6.27980887 9.70024676 12.28460827 11 19 C9.68 19 8.36 19 7 19 C6.67 18.34 6.34 17.68 6 17 C3.67843403 16.59270772 1.3431213 16.25561323 -1 16 C-1.33 16.99 -1.66 17.98 -2 19 C-2.99 19 -3.98 19 -5 19 C-4.48378772 12.16018724 -2.51409031 6.36123316 0 0 Z " fill="#EEEEEE" transform="translate(169,102)"/>
<path d="M0 0 C0.99 0.66 1.98 1.32 3 2 C2.4740625 2.86625 2.4740625 2.86625 1.9375 3.75 C0.76931908 5.92304158 0.76931908 5.92304158 1.5 8 C2 10 2 10 1.0625 12.25 C0.5365625 13.11625 0.5365625 13.11625 0 14 C-1.66666667 14 -3.33333333 14 -5 14 C-5 13.34 -5 12.68 -5 12 C-5.66 12 -6.32 12 -7 12 C-7 12.66 -7 13.32 -7 14 C-7.804375 14.12375 -8.60875 14.2475 -9.4375 14.375 C-10.283125 14.58125 -11.12875 14.7875 -12 15 C-12.33 15.66 -12.66 16.32 -13 17 C-14.7421875 17.88671875 -14.7421875 17.88671875 -16.875 18.6875 C-17.57367188 18.95949219 -18.27234375 19.23148438 -18.9921875 19.51171875 C-21 20 -21 20 -24 19 C-24.33 18.01 -24.66 17.02 -25 16 C-23.35 15.67 -21.7 15.34 -20 15 C-20 13.68 -20 12.36 -20 11 C-18.68 11 -17.36 11 -16 11 C-12.80631026 9.63788802 -9.59587013 8.19174026 -8 5 C-5.66666667 4 -3.33333333 3 -1 2 C-0.67 1.34 -0.34 0.68 0 0 Z " fill="#28311B" transform="translate(53,22)"/>
<path d="M0 0 C1.65 0 3.3 0 5 0 C7.70071112 6.27980887 9.70024676 12.28460827 11 19 C9.68 19 8.36 19 7 19 C7 18.01 7 17.02 7 16 C4.36 16 1.72 16 -1 16 C-1 16.99 -1 17.98 -1 19 C-2.32 19 -3.64 19 -5 19 C-4.39297368 12.3227105 -2.22368606 6.29872004 0 0 Z " fill="#13170D" transform="translate(226,142)"/>
<path d="M0 0 C1.53333984 0.00676758 1.53333984 0.00676758 3.09765625 0.01367188 C5.60683194 0.025397 8.1158849 0.04180824 10.625 0.0625 C10.625 0.3925 10.625 0.7225 10.625 1.0625 C8.72041016 1.10117188 8.72041016 1.10117188 6.77734375 1.140625 C-13.87473437 1.73938205 -33.13238865 6.31914043 -48.45703125 20.984375 C-52.16826489 25.00550798 -53.74677598 27.53412866 -54.375 33.0625 C-55.035 32.7325 -55.695 32.4025 -56.375 32.0625 C-57.365 34.7025 -58.355 37.3425 -59.375 40.0625 C-60.035 40.0625 -60.695 40.0625 -61.375 40.0625 C-60.61886886 34.51753829 -60.61886886 34.51753829 -59.3371582 32.12597656 C-58.23823283 29.76918456 -58.20495348 28.37369634 -58.35546875 25.796875 C-58.38447266 24.98863281 -58.41347656 24.18039063 -58.44335938 23.34765625 C-58.52208176 21.67254705 -58.61300903 19.9979619 -58.71679688 18.32421875 C-58.90797928 12.13775215 -57.64505086 7.6930326 -53.375 3.0625 C-51.20385742 1.84277344 -51.20385742 1.84277344 -49.375 1.0625 C-49.79652344 1.67738281 -50.21804687 2.29226562 -50.65234375 2.92578125 C-51.20019531 3.73402344 -51.74804688 4.54226562 -52.3125 5.375 C-52.85777344 6.17550781 -53.40304688 6.97601563 -53.96484375 7.80078125 C-56.26133056 11.4840662 -56.51132123 14.37387705 -56.5 18.625 C-56.50257813 19.59566406 -56.50515625 20.56632812 -56.5078125 21.56640625 C-56.54150953 24.06202953 -56.54150953 24.06202953 -55.375 26.0625 C-54.98570312 25.5778125 -54.59640625 25.093125 -54.1953125 24.59375 C-40.03839782 7.63154808 -21.75495353 -0.1824609 0 0 Z " fill="#A0D261" transform="translate(192.375,77.9375)"/>
<path d="M0 0 C5.94 0 11.88 0 18 0 C17.67 2.64 17.34 5.28 17 8 C15.68 8 14.36 8 13 8 C12.67 7.67 12.34 7.34 12 7 C11.67 7.33 11.34 7.66 11 8 C13.475 8.99 13.475 8.99 16 10 C15.34 10.66 14.68 11.32 14 12 C13.67 12.66 13.34 13.32 13 14 C12 16 12 16 10 18 C7.47740939 16.02579865 7.0070192 15.03254358 6.3125 11.8125 C6.209375 10.884375 6.10625 9.95625 6 9 C4.02 9 2.04 9 0 9 C0.66 8.67 1.32 8.34 2 8 C1.67 7.01 1.34 6.02 1 5 C1.66 4.34 2.32 3.68 3 3 C2.01 2.01 1.02 1.02 0 0 Z " fill="#29331B" transform="translate(318,0)"/>
<path d="M0 0 C0.33 0 0.66 0 1 0 C1 2.31 1 4.62 1 7 C0.1646875 7.0928125 0.1646875 7.0928125 -0.6875 7.1875 C-3.9283878 8.32619031 -5.6312403 10.56890452 -8 13 C-8.66 13 -9.32 13 -10 13 C-10.33 15.64 -10.66 18.28 -11 21 C-11.99 20.67 -12.98 20.34 -14 20 C-14 19.34 -14 18.68 -14 18 C-14.66 18 -15.32 18 -16 18 C-16 18.66 -16 19.32 -16 20 C-16.66 20.33 -17.32 20.66 -18 21 C-18 22.32 -18 23.64 -18 25 C-20.64458379 26.32229189 -22.67761301 26.09677194 -25.625 26.0625 C-26.62789063 26.05347656 -27.63078125 26.04445313 -28.6640625 26.03515625 C-29.43492187 26.02355469 -30.20578125 26.01195312 -31 26 C-28.09280073 22.85053412 -24.9098262 20.37095971 -21.48046875 17.8359375 C-10.20510443 9.54112857 -10.20510443 9.54112857 0 0 Z " fill="#1E2614" transform="translate(349,324)"/>
<path d="M0 0 C0.33 0.66 0.66 1.32 1 2 C1.66 1.773125 2.32 1.54625 3 1.3125 C7.14192088 0.88104991 10.31242919 2.15214443 14 4 C14.66 4.66 15.32 5.32 16 6 C15.67 6.66 15.34 7.32 15 8 C14.34 8 13.68 8 13 8 C13 7.34 13 6.68 13 6 C12.34 6 11.68 6 11 6 C11.33 7.32 11.66 8.64 12 10 C9.36 9.34 6.72 8.68 4 8 C4 8.66 4 9.32 4 10 C4.99 10.33 5.98 10.66 7 11 C6.01 11.495 6.01 11.495 5 12 C4.01 13.485 4.01 13.485 3 15 C1.68 14.67 0.36 14.34 -1 14 C-1 13.34 -1 12.68 -1 12 C-1.99 11.67 -2.98 11.34 -4 11 C-4 10.34 -4 9.68 -4 9 C-4.99 8.67 -5.98 8.34 -7 8 C-6.505 7.566875 -6.01 7.13375 -5.5 6.6875 C-3.66781808 5.00259517 -3.66781808 5.00259517 -4 2 C-2.68 2 -1.36 2 0 2 C0 1.34 0 0.68 0 0 Z " fill="#A7DC64" transform="translate(96,27)"/>
<path d="M0 0 C4.62 0 9.24 0 14 0 C14 0.99 14 1.98 14 3 C10.7 3 7.4 3 4 3 C4 4.65 4 6.3 4 8 C5.98 8 7.96 8 10 8 C10 8.99 10 9.98 10 11 C8.02 11 6.04 11 4 11 C4 12.65 4 14.3 4 16 C6.97 16 9.94 16 13 16 C13 16.99 13 17.98 13 19 C8.71 19 4.42 19 0 19 C0 12.73 0 6.46 0 0 Z " fill="#EFEFEF" transform="translate(111,102)"/>
<path d="M0 0 C4.29 0 8.58 0 13 0 C13 0.99 13 1.98 13 3 C10.03 3 7.06 3 4 3 C4 4.65 4 6.3 4 8 C5.98 8 7.96 8 10 8 C10 8.99 10 9.98 10 11 C8.02 11 6.04 11 4 11 C4 12.65 4 14.3 4 16 C6.97 16 9.94 16 13 16 C13 16.99 13 17.98 13 19 C8.71 19 4.42 19 0 19 C0 12.73 0 6.46 0 0 Z " fill="#0B0D09" transform="translate(173,142)"/>
<path d="M0 0 C1.65 0.33 3.3 0.66 5 1 C5 1.66 5 2.32 5 3 C7.49064888 3.68707555 9.37886292 4 12 4 C12 4.66 12 5.32 12 6 C9.1875 7.5625 9.1875 7.5625 6 9 C5.01 8.67 4.02 8.34 3 8 C2.896875 8.639375 2.79375 9.27875 2.6875 9.9375 C2.460625 10.618125 2.23375 11.29875 2 12 C1.01 12.33 0.02 12.66 -1 13 C-1.66 12.67 -2.32 12.34 -3 12 C-3.33 12.66 -3.66 13.32 -4 14 C-4 13.34 -4 12.68 -4 12 C-4.66 12 -5.32 12 -6 12 C-7.35439668 9.29120665 -7.06501451 6.99066732 -7 4 C-6.030625 3.71125 -5.06125 3.4225 -4.0625 3.125 C-0.89335797 2.35785318 -0.89335797 2.35785318 0 0 Z " fill="#B8F36D" transform="translate(89,17)"/>
<path d="M0 0 C2.375 1.3125 2.375 1.3125 4 3 C4 3.99 4 4.98 4 6 C1.9285876 5.4821469 -0.13420076 4.96165693 -2.1875 4.375 C-2.785625 4.25125 -3.38375 4.1275 -4 4 C-5.23267348 5.00836062 -5.23267348 5.00836062 -5.09765625 7.06640625 C-5.08605469 7.89011719 -5.07445313 8.71382812 -5.0625 9.5625 C-5.05347656 10.38878906 -5.04445313 11.21507812 -5.03515625 12.06640625 C-5.02355469 12.70449219 -5.01195313 13.34257812 -5 14 C-3.68 14.33 -2.36 14.66 -1 15 C-0.67 14.34 -0.34 13.68 0 13 C1.32 13 2.64 13 4 13 C3.42655063 15.86724686 3.1385485 16.8614515 1 19 C-2.71480543 19.41275616 -5.11461964 19.47674327 -8.4375 17.6875 C-10.97175584 13.32857995 -10.72979436 8.90749475 -10 4 C-7.41698404 -0.27191101 -4.81933704 -0.70281999 0 0 Z " fill="#13180E" transform="translate(123,142)"/>
<path d="M0 0 C4.29 0 8.58 0 13 0 C12.04227639 4.78861807 11.21351603 6.5270236 8.4375 10.3125 C7.79683594 11.19550781 7.15617188 12.07851562 6.49609375 12.98828125 C6.00238281 13.65214844 5.50867188 14.31601563 5 15 C7.64 15.33 10.28 15.66 13 16 C13 16.99 13 17.98 13 19 C8.71 19 4.42 19 0 19 C0.92458531 13.45248816 1.42168006 11.85083046 4.5625 7.625 C5.20316406 6.75101563 5.84382812 5.87703125 6.50390625 4.9765625 C6.99761719 4.32429687 7.49132812 3.67203125 8 3 C5.36 3 2.72 3 0 3 C0 2.01 0 1.02 0 0 Z " fill="#0F130B" transform="translate(206,142)"/>
<path d="M0 0 C0 0.66 0 1.32 0 2 C0.66 2.33 1.32 2.66 2 3 C1 6 1 6 -1.9375 7.5625 C-3.4534375 8.2740625 -3.4534375 8.2740625 -5 9 C-5.66 9.66 -6.32 10.32 -7 11 C-11.10597317 10.66887313 -15.03795597 10.15559618 -19 9 C-18.67 8.34 -18.34 7.68 -18 7 C-16.68 7 -15.36 7 -14 7 C-13.67 6.34 -13.34 5.68 -13 5 C-12.34 4.67 -11.68 4.34 -11 4 C-10.71125 3.01 -10.4225 2.02 -10.125 1 C-9 -2 -9 -2 -7.1875 -3.0625 C-4.11101898 -2.97460054 -2.42973912 -1.82230434 0 0 Z " fill="#AAE165" transform="translate(266,324)"/>
<path d="M0 0 C0.33 0.66 0.66 1.32 1 2 C0.34 2 -0.32 2 -1 2 C-0.67 2.66 -0.34 3.32 0 4 C2.52733235 4.65555119 2.52733235 4.65555119 5 5 C4.67 5.66 4.34 6.32 4 7 C3.34 6.67 2.68 6.34 2 6 C2.33 7.98 2.66 9.96 3 12 C2.01 12 1.02 12 0 12 C0 12.66 0 13.32 0 14 C-2.6875 14.8125 -2.6875 14.8125 -6 15 C-8.9375 12.8125 -8.9375 12.8125 -11 10 C-11.08953673 7.04528789 -10.00950823 6.01213119 -8.1875 3.6875 C-6 2 -6 2 -3.75 2.25 C-2.88375 2.62125 -2.88375 2.62125 -2 3 C-2 2.34 -2 1.68 -2 1 C-1.34 0.67 -0.68 0.34 0 0 Z " fill="#A7DB64" transform="translate(263,282)"/>
<path d="M0 0 C0.66 0 1.32 0 2 0 C3 1 4 2 5 3 C5.99 3.33 6.98 3.66 8 4 C8.33 4.66 8.66 5.32 9 6 C9.99 6.33 10.98 6.66 12 7 C11.34 8.32 10.68 9.64 10 11 C10.99 11.33 11.98 11.66 13 12 C12.01 12.33 11.02 12.66 10 13 C9.34 12.67 8.68 12.34 8 12 C8.33 10.68 8.66 9.36 9 8 C8.01 7.67 7.02 7.34 6 7 C6.185625 8.11375 6.37125 9.2275 6.5625 10.375 C7 14 7 14 6 16 C2.7 16 -0.6 16 -4 16 C-3.814375 14.948125 -3.62875 13.89625 -3.4375 12.8125 C-3.04920669 9.42880118 -3.11752515 7.23574112 -4 4 C-3.01 3.67 -2.02 3.34 -1 3 C-0.67 2.01 -0.34 1.02 0 0 Z M0 3 C-0.33 4.98 -0.66 6.96 -1 9 C-0.01 9.495 -0.01 9.495 1 10 C1 9.34 1 8.68 1 8 C1.66 8 2.32 8 3 8 C3.33 6.68 3.66 5.36 4 4 C2.68 3.67 1.36 3.34 0 3 Z " fill="#252E19" transform="translate(14,334)"/>
<path d="M0 0 C1.8125 0.3125 1.8125 0.3125 4 1 C7.47252823 1.75572954 7.47252823 1.75572954 11 2 C11 4.97 11 7.94 11 11 C10.01 11.33 9.02 11.66 8 12 C8 11.34 8 10.68 8 10 C6.68 10 5.36 10 4 10 C3.67 10.99 3.34 11.98 3 13 C-0.875 12.125 -0.875 12.125 -2 11 C-2.16796875 9.00390625 -2.16796875 9.00390625 -2.1875 6.5625 C-2.20167969 5.75941406 -2.21585937 4.95632812 -2.23046875 4.12890625 C-2 2 -2 2 0 0 Z " fill="#B2EB69" transform="translate(119,145)"/>
<path d="M0 0 C2.375 1.3125 2.375 1.3125 4 3 C4 3.99 4 4.98 4 6 C1.9285876 5.4821469 -0.13420076 4.96165693 -2.1875 4.375 C-2.785625 4.25125 -3.38375 4.1275 -4 4 C-5.23267348 5.00836062 -5.23267348 5.00836062 -5.09765625 7.06640625 C-5.08605469 7.89011719 -5.07445312 8.71382812 -5.0625 9.5625 C-5.05347656 10.38878906 -5.04445312 11.21507813 -5.03515625 12.06640625 C-5.02355469 12.70449219 -5.01195312 13.34257813 -5 14 C-3.10820797 14.6814823 -3.10820797 14.6814823 -1 15 C-0.34 14.34 0.32 13.68 1 13 C1.99 13 2.98 13 4 13 C3.625 15.4375 3.625 15.4375 3 18 C-0.04983996 19.52491998 -2.6423369 19.23562548 -6 19 C-7.69921875 17.890625 -7.69921875 17.890625 -9 16 C-9.3984375 12.96875 -9.3984375 12.96875 -9.375 9.5 C-9.38660156 7.78296875 -9.38660156 7.78296875 -9.3984375 6.03125 C-9 3 -9 3 -7.66015625 1.1171875 C-5.04837507 -0.6403876 -3.06305917 -0.37506847 0 0 Z " fill="#F7F7F7" transform="translate(157,102)"/>
<path d="M0 0 C1.65 0 3.3 0 5 0 C5.33 0.66 5.66 1.32 6 2 C5.67 2.99 5.34 3.98 5 5 C5.66 5 6.32 5 7 5 C7 5.99 7 6.98 7 8 C5.68 8.33 4.36 8.66 3 9 C3 8.34 3 7.68 3 7 C1.35 6.67 -0.3 6.34 -2 6 C-3.33333333 9 -3.33333333 9 -2 12 C-5.66305234 12.74926071 -8.42355152 13.2380014 -12 12 C-12 8.23312136 -11.76462683 7.08809695 -10 4 C-9.01 4.33 -8.02 4.66 -7 5 C-6.67 4.34 -6.34 3.68 -6 3 C-4.33333333 2.66666667 -2.66666667 2.33333333 -1 2 C-0.67 1.34 -0.34 0.68 0 0 Z " fill="#394628" transform="translate(277,288)"/>
<path d="M0 0 C8.40422535 0.86056338 8.40422535 0.86056338 11.9375 1.6875 C12.618125 1.790625 13.29875 1.89375 14 2 C14.66 1.34 15.32 0.68 16 0 C19.1341322 1.22791493 22.25527583 2.48597383 25.375 3.75 C26.26445312 4.09804687 27.15390625 4.44609375 28.0703125 4.8046875 C28.92109375 5.15273437 29.771875 5.50078125 30.6484375 5.859375 C31.82672119 6.33068848 31.82672119 6.33068848 33.02880859 6.81152344 C35.38120688 8.22983838 36.01572731 9.4769348 37 12 C32.29276898 11.67158853 28.55311583 10.48900729 24.1875 8.6875 C16.02885693 5.40879297 7.59889498 3.72749966 -1 2 C-0.67 1.34 -0.34 0.68 0 0 Z " fill="#94C15A" transform="translate(203,78)"/>
<path d="M0 0 C4.10121747 5.26978354 5.49086846 10.1838999 5.3125 16.828125 C4.43281607 22.94192831 -0.4197199 26.46069265 -5 30 C-6 27 -6 27 -5.0390625 24.87890625 C-4.57242188 24.11449219 -4.10578125 23.35007812 -3.625 22.5625 C-0.2823598 17.04434257 0.12252059 13.23222319 0.0625 6.75 C0.05347656 5.48671875 0.04445312 4.2234375 0.03515625 2.921875 C0.02355469 1.95765625 0.01195312 0.9934375 0 0 Z " fill="#20231B" transform="translate(255,104)"/>
<path d="M0 0 C0.66 0.33 1.32 0.66 2 1 C2 1.99 2 2.98 2 4 C1.34 4.66 0.68 5.32 0 6 C1.65 6 3.3 6 5 6 C5.33 5.34 5.66 4.68 6 4 C6.66 4.33 7.32 4.66 8 5 C8 4.01 8 3.02 8 2 C10.64 2.33 13.28 2.66 16 3 C16 4.32 16 5.64 16 7 C15.34 7.66 14.68 8.32 14 9 C12.33333333 8.66666667 10.66666667 8.33333333 9 8 C8.34 8.66 7.68 9.32 7 10 C5.68 10 4.36 10 3 10 C1.06787308 10.62284938 1.06787308 10.62284938 -0.75 11.5 C-1.8225 11.995 -2.895 12.49 -4 13 C-3.67 11.35 -3.34 9.7 -3 8 C-3.66 7.67 -4.32 7.34 -5 7 C-4.34 5.68 -3.68 4.36 -3 3 C-2.01 3 -1.02 3 0 3 C0 2.01 0 1.02 0 0 Z " fill="#262D1E" transform="translate(62,47)"/>
<path d="M0 0 C0.66 0.33 1.32 0.66 2 1 C2.33 1.99 2.66 2.98 3 4 C3.33 4.66 3.66 5.32 4 6 C3.34 6 2.68 6 2 6 C1.67 6.66 1.34 7.32 1 8 C1 7.34 1 6.68 1 6 C0.01 6.99 -0.98 7.98 -2 9 C-1.34 9 -0.68 9 0 9 C0 9.99 0 10.98 0 12 C-0.556875 11.731875 -1.11375 11.46375 -1.6875 11.1875 C-4.30093496 10.70273564 -4.30093496 10.70273564 -6.75 13.3125 C-9.21397889 15.6714161 -9.21397889 15.6714161 -9 18 C-9.66 18 -10.32 18 -11 18 C-11.66 16.02 -12.32 14.04 -13 12 C-12.34 12 -11.68 12 -11 12 C-11 11.01 -11 10.02 -11 9 C-10.34 8.67 -9.68 8.34 -9 8 C-9.33 7.34 -9.66 6.68 -10 6 C-9.36191406 5.65066406 -8.72382813 5.30132812 -8.06640625 4.94140625 C-7.24011719 4.48636719 -6.41382813 4.03132812 -5.5625 3.5625 C-4.73878906 3.11003906 -3.91507812 2.65757812 -3.06640625 2.19140625 C-1.07691202 1.16337603 -1.07691202 1.16337603 0 0 Z " fill="#546D35" transform="translate(305,237)"/>
<path d="M0 0 C0.33 0 0.66 0 1 0 C1.19990835 3.59835033 0.96808719 5.93853104 -1 9 C-1.99 9.495 -1.99 9.495 -3 10 C-3.226875 10.66 -3.45375 11.32 -3.6875 12 C-5 14 -5 14 -8.5 14.75 C-10.33056243 14.88075446 -12.1647737 15 -14 15 C-13.67 13.68 -13.34 12.36 -13 11 C-13.99 11.33 -14.98 11.66 -16 12 C-16 11.34 -16 10.68 -16 10 C-15.34 10 -14.68 10 -14 10 C-14 9.34 -14 8.68 -14 8 C-13.34 8 -12.68 8 -12 8 C-12 7.01 -12 6.02 -12 5 C-11.01 4.67 -10.02 4.34 -9 4 C-8.34 5.98 -7.68 7.96 -7 10 C-6.67 7.69 -6.34 5.38 -6 3 C-5.67 3.66 -5.34 4.32 -5 5 C-3.00016466 4.20882096 -3.00016466 4.20882096 -1 3 C-0.67 2.01 -0.34 1.02 0 0 Z " fill="#779C48" transform="translate(39,87)"/>
<path d="M0 0 C0 0.99 0 1.98 0 3 C-0.66 3 -1.32 3 -2 3 C-2.33 4.65 -2.66 6.3 -3 8 C-4.32 8.33 -5.64 8.66 -7 9 C-7 10.32 -7 11.64 -7 13 C-8.32 13 -9.64 13 -11 13 C-13.16343011 15.03268602 -13.16343011 15.03268602 -15 18 C-15.99 18.66 -16.98 19.32 -18 20 C-18.98052284 17.35258834 -19.05565835 16.17553789 -18.1875 13.4375 C-16.10023589 9.15311577 -14.18431467 7.1967652 -10 5 C-9.34 5 -8.68 5 -8 5 C-8 4.34 -8 3.68 -8 3 C-7.01 2.67 -6.02 2.34 -5 2 C-2 0 -2 0 0 0 Z " fill="#323F23" transform="translate(319,295)"/>
<path d="M0 0 C0.99 0 1.98 0 3 0 C3 0.99 3 1.98 3 3 C5.64 3 8.28 3 11 3 C9.66414626 7.00756123 7.65836661 9.99750913 5.17578125 13.3515625 C3.8939504 15.14868084 2.8888731 16.97983386 2 19 C1.34 19 0.68 19 0 19 C0 12.73 0 6.46 0 0 Z " fill="#AEE667" transform="translate(203,142)"/>
<path d="M0 0 C1.32 0 2.64 0 4 0 C4 5.28 4 10.56 4 16 C6.97 16 9.94 16 13 16 C13 16.99 13 17.98 13 19 C8.71 19 4.42 19 0 19 C0 12.73 0 6.46 0 0 Z " fill="#F6F6F6" transform="translate(127,102)"/>
<path d="M0 0 C-1.01940388 2.7801924 -1.69720287 3.82814217 -4.3125 5.3125 C-7.2923726 6.07479299 -9.0709637 5.83686751 -12 5 C-12.309375 5.61875 -12.61875 6.2375 -12.9375 6.875 C-13.625 8.25 -14.3125 9.625 -15 11 C-15.99 10.67 -16.98 10.34 -18 10 C-18 9.34 -18 8.68 -18 8 C-18.66 8 -19.32 8 -20 8 C-20.12375 7.360625 -20.2475 6.72125 -20.375 6.0625 C-20.684375 5.0415625 -20.684375 5.0415625 -21 4 C-21.66 3.67 -22.32 3.34 -23 3 C-20.29273634 2.4935186 -17.58442876 1.994649 -14.875 1.5 C-13.73417969 1.28537109 -13.73417969 1.28537109 -12.5703125 1.06640625 C-8.31957086 0.29687544 -4.34140803 -0.16644376 0 0 Z " fill="#87B152" transform="translate(106,51)"/>
<path d="M0 0 C4.95 0 9.9 0 15 0 C15 2.64 15 5.28 15 8 C14.34 8 13.68 8 13 8 C13 6.02 13 4.04 13 2 C12.34 2 11.68 2 11 2 C11 3.98 11 5.96 11 8 C10.34 8 9.68 8 9 8 C9 6.02 9 4.04 9 2 C8.34 2 7.68 2 7 2 C7 3.98 7 5.96 7 8 C4.6875 8.625 4.6875 8.625 2 9 C1.01 8.34 0.02 7.68 -1 7 C-0.67 6.34 -0.34 5.68 0 5 C0.66 5 1.32 5 2 5 C1.01 4.34 0.02 3.68 -1 3 C-0.67 2.01 -0.34 1.02 0 0 Z " fill="#838382" transform="translate(145,261)"/>
<path d="M0 0 C-0.33 0.99 -0.66 1.98 -1 3 C-1.66 3 -2.32 3 -3 3 C-2.67 3.99 -2.34 4.98 -2 6 C-6.83974712 7.17327203 -11.73256121 7.9302313 -16.4375 6 C-16.953125 5.67 -17.46875 5.34 -18 5 C-18 4.34 -18 3.68 -18 3 C-17.01 3 -16.02 3 -15 3 C-15 2.34 -15 1.68 -15 1 C-9.675665 -1.32086397 -5.56157448 -0.91457003 0 0 Z " fill="#262B1E" transform="translate(264,299)"/>
<path d="M0 0 C0.66 1.32 1.32 2.64 2 4 C0.68 4.33 -0.64 4.66 -2 5 C-2 5.66 -2 6.32 -2 7 C-5.96 8.98 -5.96 8.98 -10 11 C-10 10.34 -10 9.68 -10 9 C-10.74765625 9.42152344 -11.4953125 9.84304688 -12.265625 10.27734375 C-13.25046875 10.82519531 -14.2353125 11.37304688 -15.25 11.9375 C-16.22453125 12.48277344 -17.1990625 13.02804687 -18.203125 13.58984375 C-20.53610409 14.76610835 -22.45350762 15.52101691 -25 16 C-24.3125 14.125 -24.3125 14.125 -23 12 C-22.21625 11.690625 -21.4325 11.38125 -20.625 11.0625 C-17.31833297 9.72408716 -16.18936176 7.75435834 -14 5 C-11.75 4.1875 -11.75 4.1875 -10 4 C-10.33 5.32 -10.66 6.64 -11 8 C-10.46375 7.401875 -9.9275 6.80375 -9.375 6.1875 C-6.76615348 3.78461505 -4.19894265 2.4928399 -1 1 C-0.67 0.67 -0.34 0.34 0 0 Z " fill="#95C558" transform="translate(293,330)"/>
<path d="M0 0 C1.32 0 2.64 0 4 0 C4 6.27 4 12.54 4 19 C2.68 19 1.36 19 0 19 C0 12.73 0 6.46 0 0 Z " fill="#11160C" transform="translate(166,142)"/>
<path d="M0 0 C1.32 0 2.64 0 4 0 C4 6.27 4 12.54 4 19 C2.68 19 1.36 19 0 19 C0 12.73 0 6.46 0 0 Z " fill="#F3F3F3" transform="translate(218,102)"/>
<path d="M0 0 C-0.66 1.98 -1.32 3.96 -2 6 C-2.33 5.34 -2.66 4.68 -3 4 C-4.485 6.475 -4.485 6.475 -6 9 C-5.34 9.33 -4.68 9.66 -4 10 C-6.2370804 13.3556206 -6.42517038 13.19278041 -10 14 C-10.33 14.66 -10.66 15.32 -11 16 C-12.97888961 16.72693904 -14.97954558 17.39816251 -17 18 C-17.33 17.01 -17.66 16.02 -18 15 C-16.90241493 14.15801693 -15.79664683 13.32669329 -14.6875 12.5 C-14.07261719 12.0359375 -13.45773437 11.571875 -12.82421875 11.09375 C-11 10 -11 10 -8 10 C-8.33 9.01 -8.66 8.02 -9 7 C-8.34 7 -7.68 7 -7 7 C-7 5.68 -7 4.36 -7 3 C-6.34 3 -5.68 3 -5 3 C-5 2.34 -5 1.68 -5 1 C-2 0 -2 0 0 0 Z " fill="#688542" transform="translate(283,262)"/>
<path d="M0 0 C1.65 0.33 3.3 0.66 5 1 C5 4.63 5 8.26 5 12 C3.35 12.33 1.7 12.66 0 13 C-1 12 -1 12 -1.1328125 9.53125 C-1.13023437 8.5309375 -1.12765625 7.530625 -1.125 6.5 C-1.12757813 5.4996875 -1.13015625 4.499375 -1.1328125 3.46875 C-1 1 -1 1 0 0 Z " fill="#B8F36C" transform="translate(135,145)"/>
<path d="M0 0 C1.32 0 2.64 0 4 0 C5.26237731 2.52475462 5.09856404 4.31200466 5.0625 7.125 C5.05347656 8.03507812 5.04445312 8.94515625 5.03515625 9.8828125 C5.02355469 10.58148438 5.01195312 11.28015625 5 12 C3.34385343 12.38218767 1.67542976 12.71395102 0 13 C-1 12 -1 12 -1.1328125 9.53125 C-1.13023437 8.5309375 -1.12765625 7.530625 -1.125 6.5 C-1.12757813 5.4996875 -1.13015625 4.499375 -1.1328125 3.46875 C-1 1 -1 1 0 0 Z " fill="#282828" transform="translate(230,105)"/>
<path d="M0 0 C4.95 0 9.9 0 15 0 C11.76963876 2.42277093 8.78383006 4.29437675 5.25 6.1875 C4.26515625 6.71730469 3.2803125 7.24710937 2.265625 7.79296875 C1.51796875 8.19128906 0.7703125 8.58960938 0 9 C0 6.03 0 3.06 0 0 Z " fill="#1D2513" transform="translate(0,0)"/>
<path d="M0 0 C4.28440151 1.08528714 7.02934091 3.50130032 10.25 6.4375 C11.12140625 7.21996094 11.9928125 8.00242187 12.890625 8.80859375 C15 11 15 11 16 14 C15.34 14.66 14.68 15.32 14 16 C13.61070312 15.49210937 13.22140625 14.98421875 12.8203125 14.4609375 C8.24859781 8.83583233 3.37753058 5.38766212 -3 2 C-2.01 1.34 -1.02 0.68 0 0 Z " fill="#ABE166" transform="translate(239,88)"/>
<path d="M0 0 C3.3 0 6.6 0 10 0 C9.67 0.66 9.34 1.32 9 2 C8.95977609 4.3329866 8.95679753 6.66706666 9 9 C6.03 9 3.06 9 0 9 C0.66 8.67 1.32 8.34 2 8 C1.67 7.01 1.34 6.02 1 5 C1.66 4.34 2.32 3.68 3 3 C2.01 2.01 1.02 1.02 0 0 Z " fill="#415528" transform="translate(318,0)"/>
<path d="M0 0 C0.33 0.66 0.66 1.32 1 2 C1.99 2.33 2.98 2.66 4 3 C5.38671875 4.62890625 5.38671875 4.62890625 6.6875 6.5625 C7.34298828 7.52349609 7.34298828 7.52349609 8.01171875 8.50390625 C8.50091797 9.24447266 8.50091797 9.24447266 9 10 C8.67 10.66 8.34 11.32 8 12 C7.34 11.34 6.68 10.68 6 10 C5.34 10.66 4.68 11.32 4 12 C4 11.01 4 10.02 4 9 C1.69 9 -0.62 9 -3 9 C-2.5020163 5.26512223 -2.12508244 3.18762365 0 0 Z " fill="#455037" transform="translate(136,109)"/>
<path d="M0 0 C0.99 0.99 1.98 1.98 3 3 C2.67 3.66 2.34 4.32 2 5 C0.68 5 -0.64 5 -2 5 C-2 5.66 -2 6.32 -2 7 C-5.82320557 8.42258812 -8.91281305 9.24042276 -13 9 C-13 8.01 -13 7.02 -13 6 C-11.35 5.67 -9.7 5.34 -8 5 C-8 4.34 -8 3.68 -8 3 C-5.36 2.67 -2.72 2.34 0 2 C0 1.34 0 0.68 0 0 Z " fill="#9DCE5E" transform="translate(251,295)"/>
<path d="M0 0 C-1.0725 0.4125 -2.145 0.825 -3.25 1.25 C-5.83608769 2.3405189 -7.09044376 3.09044376 -9.125 5.125 C-11.36859973 7.36859973 -12.8979054 7.65532282 -16 8 C-16 7.34 -16 6.68 -16 6 C-15.01 5.34 -14.02 4.68 -13 4 C-14.32 3.67 -15.64 3.34 -17 3 C-15.58521865 2.35004703 -14.16808513 1.70521278 -12.75 1.0625 C-11.96109375 0.70285156 -11.1721875 0.34320313 -10.359375 -0.02734375 C-6.08407372 -1.78984378 -4.08048087 -2.47743481 0 0 Z " fill="#698941" transform="translate(74,72)"/>
<path d="M0 0 C0.99 0.33 1.98 0.66 3 1 C3 1.99 3 2.98 3 4 C2.01 4 1.02 4 0 4 C0.66 5.65 1.32 7.3 2 9 C0.68 8.67 -0.64 8.34 -2 8 C-2 8.66 -2 9.32 -2 10 C-2.99 10 -3.98 10 -5 10 C-5 10.66 -5 11.32 -5 12 C-5.66 12 -6.32 12 -7 12 C-7 10.68 -7 9.36 -7 8 C-7.66 7.34 -8.32 6.68 -9 6 C-6.525 6.495 -6.525 6.495 -4 7 C-4 6.34 -4 5.68 -4 5 C-3.34 4.34 -2.68 3.68 -2 3 C-1.34 2.01 -0.68 1.02 0 0 Z " fill="#8CB755" transform="translate(289,281)"/>
<path d="M0 0 C0.99 0.33 1.98 0.66 3 1 C3 1.66 3 2.32 3 3 C2.01 3.33 1.02 3.66 0 4 C-2.0180755 5.30581356 -4.02053408 6.63636792 -6 8 C-5.34 8.66 -4.68 9.32 -4 10 C-5.98 10.33 -7.96 10.66 -10 11 C-10.66 9.68 -11.32 8.36 -12 7 C-10.35 6.67 -8.7 6.34 -7 6 C-7 4.68 -7 3.36 -7 2 C-5.68 2 -4.36 2 -3 2 C-2.01 1.34 -1.02 0.68 0 0 Z " fill="#4E6530" transform="translate(40,31)"/>
<path d="M0 0 C-1.03538614 2.82378039 -1.66619755 3.8243145 -4.375 5.25 C-7 6 -7 6 -11 6 C-11.66 4.35 -12.32 2.7 -13 1 C-8.61414671 0.29826347 -4.44209357 -0.10834375 0 0 Z " fill="#84AC50" transform="translate(106,51)"/>
<path d="M0 0 C3.125 -0.1875 3.125 -0.1875 6 0 C6 0.99 6 1.98 6 3 C5.34 2.67 4.68 2.34 4 2 C4 3.32 4 4.64 4 6 C5.32 5.67 6.64 5.34 8 5 C7.01 6.485 7.01 6.485 6 8 C2.375 8.1875 2.375 8.1875 -1 8 C-1.625 5.6875 -1.625 5.6875 -2 3 C-1.34 2.01 -0.68 1.02 0 0 Z " fill="#929292" transform="translate(174,261)"/>
<path d="M0 0 C0.66 0.33 1.32 0.66 2 1 C2.33 1.99 2.66 2.98 3 4 C3.33 4.66 3.66 5.32 4 6 C3.34 6 2.68 6 2 6 C1.67 6.66 1.34 7.32 1 8 C1 7.34 1 6.68 1 6 C-0.32 6.33 -1.64 6.66 -3 7 C-3 7.66 -3 8.32 -3 9 C-4.32 8.67 -5.64 8.34 -7 8 C-7 6.68 -7 5.36 -7 4 C-6.030625 3.525625 -5.06125 3.05125 -4.0625 2.5625 C-1.19522563 1.29806053 -1.19522563 1.29806053 0 0 Z " fill="#85AE4F" transform="translate(305,237)"/>
<path d="M0 0 C5.61 0 11.22 0 17 0 C16.67 1.32 16.34 2.64 16 4 C14.68 4 13.36 4 12 4 C12 3.34 12 2.68 12 2 C6.67829506 1.70437633 6.67829506 1.70437633 2 4 C1.01 4 0.02 4 -1 4 C-0.67 2.68 -0.34 1.36 0 0 Z " fill="#222B16" transform="translate(62,0)"/>
<path d="M0 0 C2.625 0.375 2.625 0.375 5 1 C5 2.65 5 4.3 5 6 C4.34 6 3.68 6 3 6 C3 6.66 3 7.32 3 8 C1.68 7.67 0.36 7.34 -1 7 C-1.625 4.625 -1.625 4.625 -2 2 C-1.34 1.34 -0.68 0.68 0 0 Z " fill="#828282" transform="translate(138,262)"/>
<path d="M0 0 C1.65 0.33 3.3 0.66 5 1 C5 1.66 5 2.32 5 3 C7.49064888 3.68707555 9.37886292 4 12 4 C12 4.66 12 5.32 12 6 C10.02 6.99 8.04 7.98 6 9 C5.773125 8.195625 5.54625 7.39125 5.3125 6.5625 C4.879375 5.716875 4.44625 4.87125 4 4 C1.45224694 3.10613836 1.45224694 3.10613836 -1 3 C-0.67 2.01 -0.34 1.02 0 0 Z " fill="#89B354" transform="translate(89,17)"/>
<path d="M0 0 C6.37207951 0.2889832 10.75121239 1.28210878 16 5 C16.33 5.99 16.66 6.98 17 8 C10.09062003 7.3481717 10.09062003 7.3481717 7 4 C4.7100188 2.85759403 2.38295838 1.94419105 0 1 C0 0.67 0 0.34 0 0 Z " fill="#6E8E45" transform="translate(223,82)"/>
<path d="M0 0 C0.99 0 1.98 0 3 0 C2.38461538 5.53846154 2.38461538 5.53846154 0.4375 7.875 C-0.2740625 8.431875 -0.2740625 8.431875 -1 9 C-1.99 8.67 -2.98 8.34 -4 8 C-4 7.34 -4 6.68 -4 6 C-4.66 6 -5.32 6 -6 6 C-5.67 5.01 -5.34 4.02 -5 3 C-3.67696283 2.6278958 -2.34262065 2.29369827 -1 2 C-0.67 1.34 -0.34 0.68 0 0 Z " fill="#495E2F" transform="translate(254,322)"/>
<path d="M0 0 C2.475 0.99 2.475 0.99 5 2 C4.01 2.33 3.02 2.66 2 3 C2 3.66 2 4.32 2 5 C3.32 5.33 4.64 5.66 6 6 C6 6.66 6 7.32 6 8 C1.375 10.125 1.375 10.125 -2 9 C-1.67 8.01 -1.34 7.02 -1 6 C-1.66 5.01 -2.32 4.02 -3 3 C-2.01 2.67 -1.02 2.34 0 2 C0 1.34 0 0.68 0 0 Z " fill="#678441" transform="translate(248,304)"/>
<path d="M0 0 C0.33 0.99 0.66 1.98 1 3 C-1.475 2.01 -1.475 2.01 -4 1 C-4 1.99 -4 2.98 -4 4 C-7.78187881 5.83691257 -9.94568308 6.15837626 -14 5 C-12.68 4.34 -11.36 3.68 -10 3 C-10 2.34 -10 1.68 -10 1 C-6.52674819 -0.1577506 -3.63932552 -0.06866652 0 0 Z " fill="#8EBB56" transform="translate(74,48)"/>
<path d="M0 0 C1.65 0.33 3.3 0.66 5 1 C5 3.31 5 5.62 5 8 C4.01 8.33 3.02 8.66 2 9 C1.01 8.34 0.02 7.68 -1 7 C-0.67 6.34 -0.34 5.68 0 5 C0.66 5 1.32 5 2 5 C1.01 4.34 0.02 3.68 -1 3 C-0.67 2.01 -0.34 1.02 0 0 Z " fill="#787878" transform="translate(145,261)"/>
<path d="M0 0 C2.475 0.495 2.475 0.495 5 1 C5 2.98 5 4.96 5 7 C3.35 7.33 1.7 7.66 0 8 C0 5.36 0 2.72 0 0 Z " fill="#90908F" transform="translate(197,261)"/>
<path d="M0 0 C0.99 0.99 1.98 1.98 3 3 C2.67 3.99 2.34 4.98 2 6 C1.01 5.67 0.02 5.34 -1 5 C-1.33 5.66 -1.66 6.32 -2 7 C-2.66 6.67 -3.32 6.34 -4 6 C-4.33 7.32 -4.66 8.64 -5 10 C-5.99 9.34 -6.98 8.68 -8 8 C-7.67 6.68 -7.34 5.36 -7 4 C-5.02 3.67 -3.04 3.34 -1 3 C-0.67 2.01 -0.34 1.02 0 0 Z " fill="#526935" transform="translate(55,78)"/>
<path d="M0 0 C0.33 0.66 0.66 1.32 1 2 C1.66 2.33 2.32 2.66 3 3 C2.67 3.66 2.34 4.32 2 5 C1.34 5 0.68 5 0 5 C0 5.99 0 6.98 0 8 C-1.32 8 -2.64 8 -4 8 C-4 8.66 -4 9.32 -4 10 C-4.66 9.67 -5.32 9.34 -6 9 C-4.52307692 2.35384615 -4.52307692 2.35384615 -1.875 0.5625 C-0.946875 0.2840625 -0.946875 0.2840625 0 0 Z " fill="#83AD4F" transform="translate(21,98)"/>
<path d="M0 0 C0.33 0.66 0.66 1.32 1 2 C2.89533342 2.46523063 2.89533342 2.46523063 5.0625 2.625 C6.361875 2.74875 7.66125 2.8725 9 3 C8.01 4.485 8.01 4.485 7 6 C-1.57142857 5 -1.57142857 5 -5 4 C-4.67 3.34 -4.34 2.68 -4 2 C-2.68 2 -1.36 2 0 2 C0 1.34 0 0.68 0 0 Z " fill="#85AF50" transform="translate(252,329)"/>
<path d="M0 0 C2.0625 0.4375 2.0625 0.4375 4 1 C4 2.98 4 4.96 4 7 C2.0625 7.5625 2.0625 7.5625 0 8 C-1 7 -1 7 -1.125 4 C-1 1 -1 1 0 0 Z " fill="#888887" transform="translate(162,261)"/>
<path d="M0 0 C0.66 0.33 1.32 0.66 2 1 C2.625 3.0625 2.625 3.0625 3 5 C2.443125 5.061875 1.88625 5.12375 1.3125 5.1875 C-1.9283878 6.32619031 -3.6312403 8.56890452 -6 11 C-6.66 11 -7.32 11 -8 11 C-8 9.68 -8 8.36 -8 7 C-7.01 7 -6.02 7 -5 7 C-5 6.01 -5 5.02 -5 4 C-4.360625 3.896875 -3.72125 3.79375 -3.0625 3.6875 C-2.381875 3.460625 -1.70125 3.23375 -1 3 C-0.67 2.01 -0.34 1.02 0 0 Z " fill="#333E23" transform="translate(292,251)"/>
<path d="M0 0 C0.33 0 0.66 0 1 0 C1.19990835 3.59835033 0.96808719 5.93853104 -1 9 C-2.33333333 9.66666667 -3.66666667 10.33333333 -5 11 C-5 10.34 -5 9.68 -5 9 C-5.66 9 -6.32 9 -7 9 C-6.67 7.02 -6.34 5.04 -6 3 C-5.67 3.66 -5.34 4.32 -5 5 C-3.00016466 4.20882096 -3.00016466 4.20882096 -1 3 C-0.67 2.01 -0.34 1.02 0 0 Z " fill="#5C7739" transform="translate(39,87)"/>
<path d="M0 0 C-0.99 0.495 -0.99 0.495 -2 1 C-2 1.66 -2 2.32 -2 3 C-1.01 2.67 -0.02 2.34 1 2 C1 2.66 1 3.32 1 4 C1.66 4.33 2.32 4.66 3 5 C1.68 5 0.36 5 -1 5 C-1 5.66 -1 6.32 -1 7 C-1.66 7 -2.32 7 -3 7 C-3 6.34 -3 5.68 -3 5 C-3.66 5 -4.32 5 -5 5 C-5.66 3.35 -6.32 1.7 -7 0 C-4.3333581 -1.33332095 -2.83319697 -0.67102033 0 0 Z " fill="#8DB856" transform="translate(282,294)"/>
<path d="M0 0 C0.66 1.32 1.32 2.64 2 4 C0.68 4.33 -0.64 4.66 -2 5 C-2 5.66 -2 6.32 -2 7 C-4.64738916 8.4606285 -5.89448334 9 -9 9 C-8.375 6.6875 -8.375 6.6875 -7 4 C-3.9375 2.25 -3.9375 2.25 -1 1 C-0.67 0.67 -0.34 0.34 0 0 Z " fill="#5B7737" transform="translate(293,330)"/>
<path d="M0 0 C1.98 0 3.96 0 6 0 C5.67 2.64 5.34 5.28 5 8 C3.68 8 2.36 8 1 8 C0.67 5.36 0.34 2.72 0 0 Z " fill="#5A7636" transform="translate(330,0)"/>
<path d="M0 0 C0 0.99 0 1.98 0 3 C-0.66 3 -1.32 3 -2 3 C-2.33 4.65 -2.66 6.3 -3 8 C-3.99 8 -4.98 8 -6 8 C-6 7.34 -6 6.68 -6 6 C-7.32 5.67 -8.64 5.34 -10 5 C-9.34 5 -8.68 5 -8 5 C-8 4.34 -8 3.68 -8 3 C-7.01 2.67 -6.02 2.34 -5 2 C-2 0 -2 0 0 0 Z " fill="#6A8A41" transform="translate(319,295)"/>
<path d="M0 0 C1.32 0 2.64 0 4 0 C4 0.66 4 1.32 4 2 C3.01 2 2.02 2 1 2 C1 3.32 1 4.64 1 6 C2.94999129 5.80528889 2.94999129 5.80528889 5 5 C6.28436734 3.0162233 6.28436734 3.0162233 7 1 C7 3.31 7 5.62 7 8 C4.69 8 2.38 8 0 8 C0 5.36 0 2.72 0 0 Z " fill="#9A9A99" transform="translate(189,261)"/>
<path d="M0 0 C1.98 0.99 1.98 0.99 4 2 C3.67 5.63 3.34 9.26 3 13 C0 10 0 10 -0.29296875 7.51953125 C-0.25816406 6.62621094 -0.22335938 5.73289062 -0.1875 4.8125 C-0.16042969 3.91144531 -0.13335937 3.01039062 -0.10546875 2.08203125 C-0.07066406 1.39496094 -0.03585938 0.70789063 0 0 Z " fill="#2E2E2D" transform="translate(222,103)"/>
<path d="M0 0 C0.99 0.33 1.98 0.66 3 1 C3 1.66 3 2.32 3 3 C2.21625 3.45375 1.4325 3.9075 0.625 4.375 C-2.1235949 6.07651113 -2.87921032 7.04519084 -4 10 C-4.66 9.67 -5.32 9.34 -6 9 C-5.34 6.36 -4.68 3.72 -4 1 C-2.68 1.33 -1.36 1.66 0 2 C0 1.34 0 0.68 0 0 Z " fill="#334122" transform="translate(44,86)"/>
<path d="M0 0 C-0.33 0.99 -0.66 1.98 -1 3 C-1.99 3 -2.98 3 -4 3 C-3.34 3.33 -2.68 3.66 -2 4 C-2 4.99 -2 5.98 -2 7 C-5 6 -5 6 -7 4 C-7.99 3.67 -8.98 3.34 -10 3 C-10 2.34 -10 1.68 -10 1 C-6.61981469 -0.04005702 -3.5219721 -0.08004482 0 0 Z " fill="#9CCD5D" transform="translate(62,75)"/>
<path d="M0 0 C0.99 0.33 1.98 0.66 3 1 C3.625 3.375 3.625 3.375 4 6 C3.34 6.66 2.68 7.32 2 8 C0.68 8 -0.64 8 -2 8 C-2.20086443 4.28400809 -2.1519437 3.22791555 0 0 Z " fill="#0A0B09" transform="translate(8,342)"/>
<path d="M0 0 C0.66 0 1.32 0 2 0 C2.33 0.99 2.66 1.98 3 3 C2.01 3 1.02 3 0 3 C-0.33 5.64 -0.66 8.28 -1 11 C-1.66 11 -2.32 11 -3 11 C-3.33 8.69 -3.66 6.38 -4 4 C-3.01 3.67 -2.02 3.34 -1 3 C-0.67 2.01 -0.34 1.02 0 0 Z " fill="#779D48" transform="translate(14,334)"/>
<path d="M0 0 C1.32 0.66 2.64 1.32 4 2 C3 3.5625 3 3.5625 1 5 C-2.51174178 5.02154443 -5.84997012 4.57501494 -9 3 C-9 2.34 -9 1.68 -9 1 C-6.03 1.33 -3.06 1.66 0 2 C0 1.34 0 0.68 0 0 Z " fill="#5D773C" transform="translate(263,294)"/>
<path d="M0 0 C0.66 0.33 1.32 0.66 2 1 C2.66 1.268125 3.32 1.53625 4 1.8125 C6.38502734 3.22860998 6.98590222 4.46475554 8 7 C6.6078125 6.505 6.6078125 6.505 5.1875 6 C1.45018761 4.82750984 -0.28767589 4.76255863 -4 6 C-3.6875 4.125 -3.6875 4.125 -3 2 C-2.01 1.34 -1.02 0.68 0 0 Z " fill="#8AB554" transform="translate(288,258)"/>
<path d="M0 0 C1.65 0.33 3.3 0.66 5 1 C4.34 1.66 3.68 2.32 3 3 C3.66 3.66 4.32 4.32 5 5 C0.25 7.875 0.25 7.875 -2 9 C-2.33 7.68 -2.66 6.36 -3 5 C-2.01 4.67 -1.02 4.34 0 4 C0 2.68 0 1.36 0 0 Z " fill="#799F49" transform="translate(10,104)"/>
<path d="M0 0 C3.46704871 0.9534384 5.6567524 2.28676594 8 5 C7.01 5.66 6.02 6.32 5 7 C2.36 5.35 -0.28 3.7 -3 2 C-2.01 1.34 -1.02 0.68 0 0 Z " fill="#9ACB5D" transform="translate(239,88)"/>
<path d="M0 0 C-3.58752742 1.86551426 -7.27812193 3.42535928 -11 5 C-11 3.68 -11 2.36 -11 1 C-6.92630576 -1.03684712 -4.41062136 -1.0257259 0 0 Z " fill="#567034" transform="translate(71,8)"/>
<path d="M0 0 C-0.5625 2.375 -0.5625 2.375 -2 5 C-5.625 6.3125 -5.625 6.3125 -9 7 C-9 6.01 -9 5.02 -9 4 C-3.85714286 0 -3.85714286 0 0 0 Z " fill="#181E10" transform="translate(283,339)"/>
<path d="M0 0 C0.33 0.99 0.66 1.98 1 3 C-0.25 4.5 -0.25 4.5 -2 6 C-3.32 6 -4.64 6 -6 6 C-5.67 4.35 -5.34 2.7 -5 1 C-2 0 -2 0 0 0 Z " fill="#99C95B" transform="translate(34,96)"/>
<path d="M0 0 C2.64 0.33 5.28 0.66 8 1 C8.33 1.99 8.66 2.98 9 4 C5.37 4.33 1.74 4.66 -2 5 C-1.34 3.35 -0.68 1.7 0 0 Z " fill="#3C4A2A" transform="translate(92,25)"/>
<path d="M0 0 C0 0.99 0 1.98 0 3 C-1.7015625 3.433125 -1.7015625 3.433125 -3.4375 3.875 C-4.613125 4.24625 -5.78875 4.6175 -7 5 C-7.33 5.66 -7.66 6.32 -8 7 C-8.66 7 -9.32 7 -10 7 C-9.6875 5.125 -9.6875 5.125 -9 3 C-5.81237635 0.87491756 -3.73487777 0.4979837 0 0 Z " fill="#577236" transform="translate(83,4)"/>
<path d="M0 0 C0.99 0.33 1.98 0.66 3 1 C3.33 1.99 3.66 2.98 4 4 C3.01 4 2.02 4 1 4 C1 4.66 1 5.32 1 6 C-0.65 6 -2.3 6 -4 6 C-3.6875 4.125 -3.6875 4.125 -3 2 C-2.01 1.34 -1.02 0.68 0 0 Z " fill="#B2EA69" transform="translate(262,290)"/>
<path d="M0 0 C0.99 0.33 1.98 0.66 3 1 C2.67 1.94875 2.34 2.8975 2 3.875 C0.89840809 6.77062452 0.89840809 6.77062452 1 9 C-0.65 9 -2.3 9 -4 9 C-4 8.34 -4 7.68 -4 7 C-3.34 7 -2.68 7 -2 7 C-1.855625 6.030625 -1.71125 5.06125 -1.5625 4.0625 C-1 1 -1 1 0 0 Z " fill="#779C48" transform="translate(319,225)"/>
<path d="M0 0 C1.65 0 3.3 0 5 0 C5.5625 1.9375 5.5625 1.9375 6 4 C5 5 5 5 2.4375 5.0625 C1.2309375 5.0315625 1.2309375 5.0315625 0 5 C0 3.35 0 1.7 0 0 Z " fill="#373737" transform="translate(205,113)"/>
<path d="M0 0 C1.65 0 3.3 0 5 0 C5.5625 1.9375 5.5625 1.9375 6 4 C5 5 5 5 2.4375 5.0625 C1.2309375 5.0315625 1.2309375 5.0315625 0 5 C0 3.35 0 1.7 0 0 Z " fill="#444443" transform="translate(205,105)"/>
<path d="M0 0 C0.5775 0.165 1.155 0.33 1.75 0.5 C4.26664369 1.14462031 4.26664369 1.14462031 8 1 C8 2.33333333 8 3.66666667 8 5 C6.02 5 4.04 5 2 5 C1.34 3.35 0.68 1.7 0 0 Z " fill="#1F231A" transform="translate(90,47)"/>
<path d="M0 0 C0.66 0 1.32 0 2 0 C2 0.66 2 1.32 2 2 C2.66 2 3.32 2 4 2 C4.33 1.34 4.66 0.68 5 0 C5 1.65 5 3.3 5 5 C3.125 6.0625 3.125 6.0625 1 7 C0.34 6.67 -0.32 6.34 -1 6 C-1.33 6.66 -1.66 7.32 -2 8 C-2 7.01 -2 6.02 -2 5 C-1.01 4.67 -0.02 4.34 1 4 C0.67 2.68 0.34 1.36 0 0 Z " fill="#90BD58" transform="translate(87,23)"/>
<path d="M0 0 C1.32 0 2.64 0 4 0 C5 3 5 3 4.0625 5.1875 C3.5365625 6.0846875 3.5365625 6.0846875 3 7 C2.01 7 1.02 7 0 7 C0 4.69 0 2.38 0 0 Z " fill="#9D9D9D" transform="translate(183,261)"/>
<path d="M0 0 C0.66 0.33 1.32 0.66 2 1 C2 1.99 2 2.98 2 4 C1.34 4.66 0.68 5.32 0 6 C0 6.99 0 7.98 0 9 C-2.475 8.01 -2.475 8.01 -5 7 C-4.34 5.68 -3.68 4.36 -3 3 C-2.01 3 -1.02 3 0 3 C0 2.01 0 1.02 0 0 Z " fill="#536A34" transform="translate(62,47)"/>
<path d="M0 0 C1.32 0.66 2.64 1.32 4 2 C2.9375 3.9375 2.9375 3.9375 1 6 C-2.6875 6.75 -2.6875 6.75 -6 7 C-4 5 -2 3 0 1 C0 0.67 0 0.34 0 0 Z " fill="#141810" transform="translate(39,33)"/>
<path d="M0 0 C0.66 1.32 1.32 2.64 2 4 C0.54735962 4.8638129 -0.9123163 5.71580454 -2.375 6.5625 C-3.59316406 7.27599609 -3.59316406 7.27599609 -4.8359375 8.00390625 C-5.55007813 8.33261719 -6.26421875 8.66132813 -7 9 C-7.66 8.67 -8.32 8.34 -9 8 C-6.72488743 4.58733115 -5.6457342 4.45829368 -2 3 C-1.34 2.01 -0.68 1.02 0 0 Z " fill="#68883E" transform="translate(277,337)"/>
<path d="M0 0 C0.99 0 1.98 0 3 0 C3.33 0.66 3.66 1.32 4 2 C4.99 2.33 5.98 2.66 7 3 C6.34 4.32 5.68 5.64 5 7 C5.99 7.33 6.98 7.66 8 8 C7.01 8.33 6.02 8.66 5 9 C4.34 8.67 3.68 8.34 3 8 C3.33 6.68 3.66 5.36 4 4 C2.68 3.67 1.36 3.34 0 3 C0 2.01 0 1.02 0 0 Z " fill="#84AE4F" transform="translate(19,338)"/>
<path d="M0 0 C0.66 0.33 1.32 0.66 2 1 C2 2.65 2 4.3 2 6 C-0.31 6.33 -2.62 6.66 -5 7 C-4.34 5.68 -3.68 4.36 -3 3 C-2.34 3 -1.68 3 -1 3 C-0.67 2.01 -0.34 1.02 0 0 Z " fill="#90BD57" transform="translate(264,299)"/>
<path d="M0 0 C-0.66 1.98 -1.32 3.96 -2 6 C-2.33 5.34 -2.66 4.68 -3 4 C-3.99 5.485 -3.99 5.485 -5 7 C-5.66 7 -6.32 7 -7 7 C-7 5.68 -7 4.36 -7 3 C-6.34 3 -5.68 3 -5 3 C-5 2.34 -5 1.68 -5 1 C-2 0 -2 0 0 0 Z " fill="#5C753A" transform="translate(283,262)"/>
<path d="M0 0 C-0.33 0.99 -0.66 1.98 -1 3 C-4.5625 4.6875 -4.5625 4.6875 -8 6 C-7.67 4.35 -7.34 2.7 -7 1 C-4.50935112 0.31292445 -2.62113708 0 0 0 Z " fill="#1E2417" transform="translate(66,54)"/>
<path d="M0 0 C1.40783184 2.62795276 2.50772334 5.04634002 3 8 C2.67 8.66 2.34 9.32 2 10 C0.68 10 -0.64 10 -2 10 C-2 9.34 -2 8.68 -2 8 C-1.34 8 -0.68 8 0 8 C-0.185625 7.4225 -0.37125 6.845 -0.5625 6.25 C-1.04023546 3.79307475 -0.75729364 2.35602466 0 0 Z " fill="#4B622F" transform="translate(18,340)"/>
<path d="M0 0 C0.99 0.33 1.98 0.66 3 1 C2.34 2.65 1.68 4.3 1 6 C-0.32 6 -1.64 6 -3 6 C-3 4.68 -3 3.36 -3 2 C-2.01 2 -1.02 2 0 2 C0 1.34 0 0.68 0 0 Z " fill="#464645" transform="translate(193,261)"/>
<path d="M0 0 C0.33 2.64 0.66 5.28 1 8 C-1 7.33333333 -3 6.66666667 -5 6 C-5 4.68 -5 3.36 -5 2 C-1.125 0 -1.125 0 0 0 Z " fill="#3C3C3C" transform="translate(183,261)"/>
<path d="M0 0 C0.66 0 1.32 0 2 0 C2.33 2.64 2.66 5.28 3 8 C1.35 8 -0.3 8 -2 8 C-1.34 5.36 -0.68 2.72 0 0 Z " fill="#A4D961" transform="translate(228,147)"/>
<path d="M0 0 C2.5654594 2.5654594 2.54046087 4.47686668 3 8 C1.35 8 -0.3 8 -2 8 C-1.34 5.36 -0.68 2.72 0 0 Z " fill="#3B3B3A" transform="translate(171,107)"/>
<path d="M0 0 C-0.66 1.32 -1.32 2.64 -2 4 C-3.32 4 -4.64 4 -6 4 C-6 3.34 -6 2.68 -6 2 C-7.65 2.33 -9.3 2.66 -11 3 C-7.63114177 -0.36885823 -4.54278442 -0.10095076 0 0 Z " fill="#9DCF5E" transform="translate(106,51)"/>
<path d="M0 0 C0.99 0.33 1.98 0.66 3 1 C3 1.66 3 2.32 3 3 C2.01 3.33 1.02 3.66 0 4 C-1.66933058 4.6599679 -3.3364521 5.32558869 -5 6 C-5.66 4.68 -6.32 3.36 -7 2 C-5.68 2 -4.36 2 -3 2 C-2.01 1.34 -1.02 0.68 0 0 Z " fill="#425429" transform="translate(40,31)"/>
<path d="M0 0 C0.99 0.33 1.98 0.66 3 1 C2.375 2.875 2.375 2.875 1 5 C-2.125 6.25 -2.125 6.25 -5 7 C-2.25 1.125 -2.25 1.125 0 0 Z " fill="#94C358" transform="translate(71,8)"/>
<path d="M0 0 C4.75 0.75 4.75 0.75 7 3 C4.625 4.5625 4.625 4.5625 2 6 C1.34 5.67 0.68 5.34 0 5 C0 3.33333333 0 1.66666667 0 0 Z " fill="#9BCC5D" transform="translate(277,266)"/>
<path d="M0 0 C0.99 0.33 1.98 0.66 3 1 C4.1875 3.5625 4.1875 3.5625 5 6 C4.01 6.495 4.01 6.495 3 7 C3 6.34 3 5.68 3 5 C1.35 5.33 -0.3 5.66 -2 6 C-1.34 4.02 -0.68 2.04 0 0 Z " fill="#89B552" transform="translate(310,232)"/>
<path d="M0 0 C2.4375 0.625 2.4375 0.625 5 2 C5.8125 5.125 5.8125 5.125 6 8 C5.01 8.33 4.02 8.66 3 9 C3.33 7.35 3.66 5.7 4 4 C2.35 4.33 0.7 4.66 -1 5 C-0.67 3.35 -0.34 1.7 0 0 Z " fill="#607B3D" transform="translate(78,51)"/>
<path d="M0 0 C0.99 0.33 1.98 0.66 3 1 C2.67 2.98 2.34 4.96 2 7 C1.01 7.33 0.02 7.66 -1 8 C-1.33 5.69 -1.66 3.38 -2 1 C-1.34 0.67 -0.68 0.34 0 0 Z " fill="#232C17" transform="translate(328,0)"/>
<path d="M0 0 C0.66 0 1.32 0 2 0 C2 1.98 2 3.96 2 6 C2.99 6 3.98 6 5 6 C5 6.66 5 7.32 5 8 C3.35 8 1.7 8 0 8 C0 5.36 0 2.72 0 0 Z " fill="#848483" transform="translate(203,261)"/>
<path d="M0 0 C0.99 0 1.98 0 3 0 C3.625 1.875 3.625 1.875 4 4 C3.34 4.66 2.68 5.32 2 6 C2 6.66 2 7.32 2 8 C1.34 8 0.68 8 0 8 C-0.66 6.02 -1.32 4.04 -2 2 C-1.34 2 -0.68 2 0 2 C0 1.34 0 0.68 0 0 Z " fill="#6E8F43" transform="translate(294,247)"/>
<path d="M0 0 C-3.4019487 2.09350689 -6.05272412 2.17942163 -10 2 C-8 -1 -8 -1 -6.125 -1.8125 C-3.50147776 -2.04398726 -2.21976911 -1.34771696 0 0 Z " fill="#587138" transform="translate(74,72)"/>
<path d="M0 0 C-0.33 1.32 -0.66 2.64 -1 4 C-3.375 4.1875 -3.375 4.1875 -6 4 C-6.66 3.01 -7.32 2.02 -8 1 C-5.29120665 -0.35439668 -2.99066732 -0.06501451 0 0 Z " fill="#B7F26D" transform="translate(94,53)"/>
<path d="M0 0 C2.97 0 5.94 0 9 0 C7.35 1.32 5.7 2.64 4 4 C2.68 3.34 1.36 2.68 0 2 C0 1.34 0 0.68 0 0 Z " fill="#B6F06B" transform="translate(0,0)"/>
<path d="M0 0 C3.4375 0.8125 3.4375 0.8125 7 2 C7.33 2.99 7.66 3.98 8 5 C6.35 5 4.7 5 3 5 C2.67 4.01 2.34 3.02 2 2 C1.01 1.67 0.02 1.34 -1 1 C-0.67 0.67 -0.34 0.34 0 0 Z " fill="#6A8943" transform="translate(90,34)"/>
<path d="M0 0 C0.99 0.66 1.98 1.32 3 2 C2.67 2.99 2.34 3.98 2 5 C2.33 5.66 2.66 6.32 3 7 C1.68 7 0.36 7 -1 7 C-1 5.35 -1 3.7 -1 2 C-1.66 1.67 -2.32 1.34 -3 1 C-2.01 0.67 -1.02 0.34 0 0 Z " fill="#090A09" transform="translate(323,8)"/>
<path d="M0 0 C0.66 1.32 1.32 2.64 2 4 C-0.70879335 5.35439668 -3.00933268 5.06501451 -6 5 C-4.62308038 2.24616077 -2.63279958 1.48516899 0 0 Z " fill="#577234" transform="translate(329,345)"/>
<path d="M0 0 C0.99 0.99 1.98 1.98 3 3 C2.67 3.66 2.34 4.32 2 5 C-0.5625 5.625 -0.5625 5.625 -3 6 C-3 4.68 -3 3.36 -3 2 C-2.01 2 -1.02 2 0 2 C0 1.34 0 0.68 0 0 Z " fill="#BAF56E" transform="translate(251,295)"/>
<path d="M0 0 C1.32 0.33 2.64 0.66 4 1 C3 4 3 4 1 6 C0.01 6 -0.98 6 -2 6 C-2 5.01 -2 4.02 -2 3 C-1.34 2.67 -0.68 2.34 0 2 C0 1.34 0 0.68 0 0 Z " fill="#67863F" transform="translate(51,57)"/>
<path d="M0 0 C0.66 0.33 1.32 0.66 2 1 C0 4 0 4 -2 5 C-4.125 4.0625 -4.125 4.0625 -6 3 C-6 2.34 -6 1.68 -6 1 C-4.7934375 1.0309375 -4.7934375 1.0309375 -3.5625 1.0625 C-1.06645115 1.29633621 -1.06645115 1.29633621 0 0 Z " fill="#587139" transform="translate(96,40)"/>
<path d="M0 0 C1.4540625 0.0309375 1.4540625 0.0309375 2.9375 0.0625 C2.6075 1.3825 2.2775 2.7025 1.9375 4.0625 C0.6175 4.0625 -0.7025 4.0625 -2.0625 4.0625 C-2.0625 3.4025 -2.0625 2.7425 -2.0625 2.0625 C-2.7225 1.7325 -3.3825 1.4025 -4.0625 1.0625 C-3.0625 0.0625 -3.0625 0.0625 0 0 Z " fill="#556F34" transform="translate(76.0625,-0.0625)"/>
<path d="M0 0 C2.64 0.66 5.28 1.32 8 2 C7.34 3.65 6.68 5.3 6 7 C5.34 6.67 4.68 6.34 4 6 C4 5.01 4 4.02 4 3 C2.68 2.34 1.36 1.68 0 1 C0 0.67 0 0.34 0 0 Z " fill="#313C24" transform="translate(80,45)"/>
<path d="M0 0 C3 1 3 1 4 3 C2.02 3.66 0.04 4.32 -2 5 C-2.33 4.01 -2.66 3.02 -3 2 C-2.01 1.34 -1.02 0.68 0 0 Z " fill="#76994A" transform="translate(268,275)"/>
<path d="M0 0 C0.33 0.66 0.66 1.32 1 2 C1.99 2.33 2.98 2.66 4 3 C3.01 3.495 3.01 3.495 2 4 C1.01 5.485 1.01 5.485 0 7 C-1.32 6.67 -2.64 6.34 -4 6 C-4 5.34 -4 4.68 -4 4 C-3.01 3.67 -2.02 3.34 -1 3 C-0.67 2.01 -0.34 1.02 0 0 Z " fill="#A1D461" transform="translate(99,35)"/>
<path d="M0 0 C0 1.65 0 3.3 0 5 C-1.65 5 -3.3 5 -5 5 C-5 3 -5 3 -3.625 1.375 C-2 0 -2 0 0 0 Z " fill="#14190E" transform="translate(350,345)"/>
<path d="M0 0 C0 0.66 0 1.32 0 2 C-1.65 2.33 -3.3 2.66 -5 3 C-5.33 2.01 -5.66 1.02 -6 0 C-3 -1 -3 -1 0 0 Z " fill="#7DA54B" transform="translate(281,345)"/>
<path d="M0 0 C1.65 0 3.3 0 5 0 C4.625 2.4375 4.625 2.4375 4 5 C3.01 5.495 3.01 5.495 2 6 C1.34 4.02 0.68 2.04 0 0 Z " fill="#8BB754" transform="translate(250,319)"/>
<path d="M0 0 C1.65 0.33 3.3 0.66 5 1 C4.67 1.99 4.34 2.98 4 4 C2.35 3.67 0.7 3.34 -1 3 C-0.67 2.01 -0.34 1.02 0 0 Z " fill="#64823E" transform="translate(249,314)"/>
<path d="M0 0 C0.99 0 1.98 0 3 0 C3.33 0.99 3.66 1.98 4 3 C2.625 4.5 2.625 4.5 1 6 C0.34 6 -0.32 6 -1 6 C-0.67 4.02 -0.34 2.04 0 0 Z " fill="#97C65A" transform="translate(306,306)"/>
<path d="M0 0 C0.99 0.33 1.98 0.66 3 1 C3 1.99 3 2.98 3 4 C2.01 4 1.02 4 0 4 C-0.33 4.66 -0.66 5.32 -1 6 C-1.625 4.125 -1.625 4.125 -2 2 C-1.34 1.34 -0.68 0.68 0 0 Z " fill="#6A8843" transform="translate(289,281)"/>
<path d="M0 0 C0.99 0.33 1.98 0.66 3 1 C1.71937515 2.7074998 0.38232443 4.37373596 -1 6 C-1.66 6 -2.32 6 -3 6 C-3 4.68 -3 3.36 -3 2 C-2.01 1.34 -1.02 0.68 0 0 Z " fill="#B6F06B" transform="translate(67,9)"/>
</svg>
